<svg width="536" height="538" viewBox="0 0 536 538" fill="none" xmlns="http://www.w3.org/2000/svg">
<path fill-rule="evenodd" clip-rule="evenodd" d="M265.298 2.93256C260.667 29.5663 252.291 81.8879 252.291 111.956C252.291 134.199 247.235 130.34 236.24 121.948C226.693 114.661 212.669 103.956 193.59 103.956C152.54 103.956 152.569 190.607 193.59 190.607C213.282 190.607 227.595 183.443 237.156 178.658C247.511 173.475 252.291 171.082 252.291 183.607C252.291 207.694 268.047 269.046 268.047 269.046C268.047 269.046 332.673 286.735 363.456 300.416C378.495 307.1 377.606 302.395 375.536 291.443C373.369 279.978 369.907 261.666 382.071 242.404C405.854 204.743 472.591 252.527 451.501 284.022C442.346 297.694 429.739 304.618 420.499 309.694C408.452 316.31 402.128 319.784 416.632 330.968C430.309 341.513 469.038 370.513 502.19 395.269C522.481 357.7 534 314.695 534 269C534 122.048 414.872 2.91992 267.919 2.91992C267.045 2.91992 266.171 2.92414 265.298 2.93256Z" fill="#1CB9B1"/>
<path d="M265.298 2.93256L265.279 0.932658L263.613 0.948733L263.328 2.58992L265.298 2.93256ZM236.24 121.948L237.454 120.358L237.454 120.358L236.24 121.948ZM237.156 178.658L236.261 176.869L236.261 176.869L237.156 178.658ZM268.047 269.046L266.11 269.543L266.399 270.668L267.519 270.975L268.047 269.046ZM363.456 300.416L362.644 302.243L362.644 302.243L363.456 300.416ZM375.536 291.443L377.501 291.072L377.501 291.072L375.536 291.443ZM382.071 242.404L383.762 243.472L383.762 243.472L382.071 242.404ZM451.501 284.022L453.163 285.135L453.163 285.135L451.501 284.022ZM420.499 309.694L419.536 307.941L419.536 307.941L420.499 309.694ZM416.632 330.968L417.854 329.384L417.854 329.384L416.632 330.968ZM502.19 395.269L500.993 396.872L502.849 398.257L503.949 396.22L502.19 395.269ZM254.291 111.956C254.291 82.0926 262.63 29.9481 267.269 3.27521L263.328 2.58992C258.703 29.1845 250.291 81.6832 250.291 111.956H254.291ZM235.027 123.537C237.74 125.608 240.224 127.508 242.369 128.777C243.449 129.415 244.53 129.947 245.586 130.258C246.647 130.57 247.803 130.693 248.947 130.361C251.363 129.659 252.591 127.336 253.272 124.557C253.978 121.678 254.291 117.549 254.291 111.956H250.291C250.291 117.484 249.973 121.214 249.387 123.605C248.776 126.097 248.053 126.455 247.831 126.52C247.656 126.57 247.321 126.599 246.715 126.42C246.105 126.241 245.345 125.889 244.404 125.333C242.509 124.213 240.238 122.483 237.454 120.358L235.027 123.537ZM193.59 105.956C211.915 105.956 225.443 116.222 235.027 123.537L237.454 120.358C227.944 113.099 213.424 101.956 193.59 101.956V105.956ZM193.59 188.607C184.162 188.607 177.048 183.673 172.203 176C167.322 168.271 164.815 157.835 164.813 147.281C164.812 136.727 167.315 126.291 172.195 118.563C177.039 110.89 184.154 105.956 193.59 105.956V101.956C182.501 101.956 174.226 107.853 168.812 116.427C163.434 124.946 160.812 136.173 160.813 147.282C160.815 158.391 163.441 169.617 168.821 178.136C174.235 186.71 182.508 192.607 193.59 192.607V188.607ZM236.261 176.869C226.726 181.641 212.777 188.607 193.59 188.607V192.607C213.787 192.607 228.465 185.244 238.051 180.446L236.261 176.869ZM254.291 183.607C254.291 180.415 253.997 177.885 253.227 176.048C252.83 175.099 252.276 174.261 251.504 173.626C250.718 172.979 249.812 172.63 248.862 172.508C247.075 172.279 245.095 172.851 243.15 173.625C241.149 174.421 238.823 175.587 236.261 176.869L238.051 180.446C240.667 179.137 242.821 178.06 244.629 177.342C246.493 176.6 247.649 176.385 248.352 176.476C248.646 176.513 248.824 176.601 248.962 176.715C249.114 176.84 249.325 177.087 249.538 177.594C249.988 178.669 250.291 180.537 250.291 183.607H254.291ZM268.047 269.046C269.985 268.548 269.985 268.548 269.984 268.548C269.984 268.547 269.984 268.547 269.984 268.546C269.983 268.544 269.983 268.541 269.982 268.538C269.98 268.53 269.977 268.52 269.973 268.505C269.966 268.476 269.955 268.432 269.94 268.374C269.911 268.258 269.867 268.086 269.809 267.859C269.694 267.406 269.526 266.738 269.311 265.878C268.881 264.158 268.267 261.672 267.53 258.614C266.055 252.498 264.09 244.093 262.125 234.939C258.177 216.549 254.291 195.401 254.291 183.607H250.291C250.291 195.9 254.284 217.472 258.214 235.779C260.188 244.974 262.161 253.413 263.641 259.552C264.381 262.622 264.998 265.118 265.43 266.847C265.646 267.712 265.816 268.385 265.932 268.842C265.99 269.071 266.034 269.246 266.064 269.363C266.079 269.422 266.091 269.467 266.098 269.497C266.102 269.512 266.105 269.523 266.107 269.531C266.108 269.535 266.109 269.538 266.109 269.54C266.11 269.541 266.11 269.542 266.11 269.542C266.11 269.543 266.11 269.543 268.047 269.046ZM364.268 298.588C348.754 291.693 324.796 283.82 304.794 277.688C294.777 274.617 285.725 271.975 279.177 270.101C275.902 269.163 273.253 268.418 271.422 267.906C270.507 267.65 269.796 267.453 269.313 267.32C269.072 267.253 268.888 267.202 268.764 267.168C268.702 267.151 268.655 267.138 268.624 267.13C268.608 267.125 268.596 267.122 268.588 267.12C268.584 267.119 268.581 267.118 268.579 267.117C268.578 267.117 268.577 267.117 268.576 267.117C268.576 267.117 268.575 267.117 268.047 269.046C267.519 270.975 267.52 270.975 267.52 270.975C267.52 270.975 267.521 270.975 267.522 270.975C267.524 270.976 267.527 270.977 267.531 270.978C267.538 270.98 267.55 270.983 267.565 270.987C267.596 270.996 267.642 271.008 267.703 271.025C267.826 271.059 268.008 271.109 268.248 271.175C268.727 271.308 269.435 271.504 270.346 271.759C272.17 272.268 274.81 273.011 278.076 273.946C284.607 275.816 293.635 278.451 303.622 281.512C323.629 287.646 347.375 295.457 362.644 302.243L364.268 298.588ZM373.57 291.815C374.096 294.595 374.513 296.815 374.642 298.554C374.78 300.415 374.522 301.084 374.364 301.277C374.364 301.277 374.091 301.693 372.303 301.4C370.568 301.116 367.997 300.246 364.268 298.588L362.644 302.243C366.434 303.928 369.392 304.976 371.655 305.347C373.865 305.71 376.061 305.519 377.459 303.81C378.701 302.293 378.771 300.15 378.631 298.257C378.481 296.243 378.01 293.768 377.501 291.072L373.57 291.815ZM380.38 241.336C367.768 261.308 371.399 280.325 373.57 291.815L377.501 291.072C375.338 279.631 372.047 262.024 383.762 243.472L380.38 241.336ZM453.163 285.135C458.902 276.565 458.595 266.922 454.725 258.13C450.876 249.386 443.473 241.36 434.711 235.608C425.95 229.856 415.635 226.248 405.849 226.591C395.97 226.936 386.707 231.317 380.38 241.336L383.762 243.472C389.326 234.661 397.323 230.891 405.988 230.588C414.745 230.282 424.255 233.528 432.515 238.951C440.774 244.374 447.588 251.845 451.064 259.742C454.519 267.591 454.645 275.732 449.839 282.909L453.163 285.135ZM421.462 311.447C430.695 306.375 443.709 299.253 453.163 285.135L449.839 282.909C440.984 296.134 428.784 302.861 419.536 307.941L421.462 311.447ZM417.854 329.384C414.282 326.63 412.184 324.49 411.116 322.792C410.103 321.179 410.131 320.174 410.458 319.38C410.865 318.392 411.919 317.264 413.914 315.879C415.869 314.521 418.419 313.118 421.462 311.447L419.536 307.941C416.555 309.578 413.797 311.09 411.632 312.594C409.506 314.07 407.627 315.75 406.76 317.856C405.813 320.156 406.227 322.53 407.73 324.921C409.18 327.226 411.73 329.713 415.411 332.552L417.854 329.384ZM503.386 393.667C470.228 368.905 431.515 339.918 417.854 329.384L415.411 332.552C429.103 343.109 467.848 372.12 500.993 396.872L503.386 393.667ZM532 269C532 314.355 520.568 357.034 500.43 394.319L503.949 396.22C524.395 358.366 536 315.035 536 269H532ZM267.919 4.91992C413.767 4.91992 532 123.153 532 269H536C536 120.944 415.976 0.919922 267.919 0.919922V4.91992ZM265.318 4.93247C266.184 4.92411 267.051 4.91992 267.919 4.91992V0.919922C267.038 0.919922 266.158 0.924174 265.279 0.932658L265.318 4.93247Z" fill="#F0F1F5"/>
<path fill-rule="evenodd" clip-rule="evenodd" d="M268.209 269.113C268.209 269.113 237.615 308.231 202.279 328.722C181.754 340.623 189.484 344.746 202.709 351.799C212.253 356.888 224.659 363.504 231.371 375.67C247.385 404.696 190.175 447.7 169.157 420.676C160.186 409.142 158.89 394.03 157.861 382.033C156.479 365.922 155.579 355.428 137.222 366.755C119.11 377.93 75.7799 395.529 41.5458 408.712C16.4704 368.121 2 320.284 2 269.068C2 122.99 119.714 4.40652 265.459 3C260.828 29.6337 252.452 81.9554 252.452 112.023C252.452 134.267 247.396 130.407 236.401 122.015C226.855 114.728 212.83 104.023 193.752 104.023C152.701 104.023 152.731 190.674 193.752 190.674C213.443 190.674 227.757 183.51 237.317 178.725C247.673 173.542 252.452 171.15 252.452 183.674C252.452 207.762 268.209 269.113 268.209 269.113Z" fill="#F56293"/>
<path d="M202.279 328.722L201.275 326.992L201.275 326.992L202.279 328.722ZM268.209 269.113L269.784 270.345L270.391 269.569L270.146 268.616L268.209 269.113ZM202.709 351.799L201.768 353.563L201.768 353.563L202.709 351.799ZM231.371 375.67L229.62 376.636L229.62 376.636L231.371 375.67ZM169.157 420.676L167.578 421.904L167.578 421.904L169.157 420.676ZM157.861 382.033L159.853 381.862L159.853 381.862L157.861 382.033ZM137.222 366.755L136.171 365.053L136.171 365.053L137.222 366.755ZM41.5458 408.712L39.8443 409.764L40.7163 411.175L42.2645 410.579L41.5458 408.712ZM265.459 3L267.43 3.34265L267.841 0.976922L265.44 1.00009L265.459 3ZM236.401 122.015L235.188 123.605L235.188 123.605L236.401 122.015ZM237.317 178.725L236.422 176.937L236.422 176.937L237.317 178.725ZM203.282 330.452C221.178 320.074 237.807 305.026 249.925 292.631C255.994 286.424 260.952 280.861 264.394 276.847C266.116 274.84 267.459 273.22 268.374 272.098C268.832 271.538 269.182 271.102 269.419 270.805C269.538 270.657 269.628 270.543 269.689 270.466C269.72 270.427 269.743 270.398 269.759 270.377C269.767 270.367 269.773 270.36 269.777 270.354C269.779 270.351 269.781 270.349 269.782 270.348C269.782 270.347 269.783 270.346 269.783 270.346C269.784 270.346 269.784 270.345 268.209 269.113C266.633 267.881 266.633 267.881 266.633 267.881C266.633 267.881 266.633 267.881 266.632 267.882C266.632 267.883 266.631 267.884 266.629 267.886C266.626 267.89 266.621 267.897 266.614 267.906C266.6 267.923 266.579 267.95 266.55 267.986C266.493 268.058 266.407 268.167 266.293 268.31C266.065 268.596 265.723 269.02 265.275 269.569C264.379 270.667 263.057 272.263 261.358 274.243C257.96 278.205 253.061 283.702 247.065 289.835C235.052 302.122 218.716 316.878 201.275 326.992L203.282 330.452ZM203.65 350.034C200.31 348.252 197.462 346.73 195.313 345.246C193.099 343.716 192.053 342.502 191.753 341.504C191.526 340.744 191.598 339.599 193.313 337.695C195.054 335.763 198.198 333.4 203.282 330.452L201.275 326.992C196.096 329.995 192.511 332.61 190.341 335.018C188.146 337.455 187.13 340.013 187.922 342.653C188.643 345.055 190.726 346.938 193.04 348.537C195.418 350.18 198.496 351.819 201.768 353.563L203.65 350.034ZM233.122 374.704C226.08 361.939 213.114 355.08 203.65 350.034L201.768 353.563C211.393 358.696 223.238 365.068 229.62 376.636L233.122 374.704ZM167.578 421.904C173.333 429.304 181.573 431.849 190.166 431.119C198.695 430.395 207.661 426.459 215.338 420.802C223.02 415.14 229.579 407.632 233.188 399.564C236.806 391.474 237.511 382.658 233.122 374.704L229.62 376.636C233.239 383.195 232.798 390.639 229.536 397.931C226.265 405.245 220.211 412.241 212.965 417.582C205.714 422.925 197.437 426.488 189.828 427.134C182.283 427.774 175.49 425.561 170.736 419.448L167.578 421.904ZM155.868 382.204C156.888 394.095 158.185 409.827 167.578 421.904L170.736 419.448C162.186 408.456 160.891 393.965 159.853 381.862L155.868 382.204ZM138.272 368.457C142.789 365.67 145.997 364.382 148.26 364.081C150.363 363.801 151.524 364.372 152.373 365.387C153.37 366.581 154.114 368.613 154.668 371.618C155.212 374.576 155.52 378.146 155.868 382.204L159.853 381.862C159.511 377.864 159.188 374.081 158.602 370.894C158.024 367.754 157.136 364.85 155.442 362.822C153.598 360.616 151.006 359.68 147.733 360.115C144.622 360.529 140.833 362.177 136.171 365.053L138.272 368.457ZM42.2645 410.579C76.4342 397.42 119.966 379.752 138.272 368.457L136.171 365.053C118.253 376.109 75.1256 393.638 40.8271 406.846L42.2645 410.579ZM43.2473 407.661C18.3614 367.377 4 319.902 4 269.068H0C0 320.666 14.5794 368.865 39.8443 409.764L43.2473 407.661ZM4 269.068C4 124.088 120.83 6.39585 265.479 4.99991L265.44 1.00009C118.599 2.41719 0 121.892 0 269.068H4ZM254.452 112.023C254.452 82.1601 262.792 30.0155 267.43 3.34265L263.489 2.65736C258.864 29.252 250.452 81.7506 250.452 112.023H254.452ZM235.188 123.605C237.901 125.676 240.385 127.576 242.53 128.844C243.61 129.482 244.691 130.015 245.748 130.325C246.808 130.637 247.964 130.761 249.108 130.428C251.524 129.726 252.752 127.403 253.433 124.625C254.139 121.746 254.452 117.617 254.452 112.023H250.452C250.452 117.552 250.134 121.282 249.548 123.673C248.937 126.164 248.214 126.522 247.992 126.587C247.817 126.638 247.482 126.666 246.876 126.488C246.266 126.309 245.506 125.957 244.566 125.401C242.67 124.28 240.399 122.551 237.615 120.425L235.188 123.605ZM193.752 106.023C212.076 106.023 225.604 116.29 235.188 123.605L237.615 120.425C228.105 113.166 213.585 102.023 193.752 102.023V106.023ZM193.752 188.674C184.323 188.674 177.21 183.74 172.364 176.067C167.484 168.339 164.976 157.902 164.975 147.348C164.973 136.794 167.476 126.359 172.356 118.63C177.2 110.958 184.315 106.023 193.752 106.023V102.023C182.662 102.023 174.387 107.92 168.974 116.495C163.595 125.014 160.973 136.24 160.975 147.349C160.977 158.458 163.603 169.684 168.982 178.203C174.396 186.777 182.669 192.674 193.752 192.674V188.674ZM236.422 176.937C226.887 181.709 212.939 188.674 193.752 188.674V192.674C213.948 192.674 228.626 185.312 238.212 180.514L236.422 176.937ZM254.452 183.674C254.452 180.482 254.158 177.953 253.388 176.116C252.991 175.167 252.437 174.329 251.665 173.693C250.879 173.047 249.974 172.698 249.023 172.576C247.236 172.346 245.256 172.919 243.312 173.692C241.31 174.488 238.984 175.654 236.422 176.937L238.212 180.514C240.828 179.205 242.983 178.128 244.79 177.409C246.654 176.668 247.811 176.453 248.513 176.543C248.807 176.581 248.985 176.668 249.123 176.782C249.275 176.907 249.487 177.154 249.699 177.661C250.149 178.736 250.452 180.604 250.452 183.674H254.452ZM268.209 269.113C270.146 268.616 270.146 268.615 270.146 268.615C270.145 268.615 270.145 268.614 270.145 268.613C270.145 268.611 270.144 268.609 270.143 268.605C270.141 268.598 270.138 268.587 270.135 268.572C270.127 268.543 270.116 268.5 270.101 268.442C270.072 268.326 270.028 268.153 269.97 267.927C269.855 267.474 269.687 266.805 269.472 265.945C269.042 264.225 268.428 261.74 267.691 258.682C266.216 252.565 264.251 244.16 262.286 235.007C258.338 216.616 254.452 195.468 254.452 183.674H250.452C250.452 195.968 254.445 217.539 258.375 235.846C260.349 245.041 262.322 253.48 263.802 259.619C264.542 262.689 265.159 265.185 265.591 266.915C265.807 267.779 265.977 268.452 266.093 268.91C266.151 269.138 266.195 269.313 266.225 269.431C266.24 269.49 266.252 269.534 266.26 269.565C266.263 269.58 266.266 269.591 266.268 269.599C266.269 269.602 266.27 269.605 266.271 269.607C266.271 269.608 266.271 269.609 266.271 269.61C266.271 269.61 266.271 269.611 268.209 269.113Z" fill="#F0F1F5"/>
<path fill-rule="evenodd" clip-rule="evenodd" d="M268.208 269.113C268.208 269.113 332.673 286.735 363.456 300.416C378.495 307.1 377.605 302.395 375.535 291.443C373.368 279.978 369.907 261.666 382.071 242.404C405.853 204.743 475 248.928 451.501 284.022C440.879 299.884 427.5 306.96 418.392 311.777C407.349 317.618 402.586 320.138 416.632 330.968C430.309 341.513 469.038 370.513 502.189 395.269C457.223 478.52 369.177 535.081 267.919 535.081C172.227 535.081 88.3338 484.567 41.4492 408.75C75.6982 395.562 119.092 377.941 137.221 366.755C155.578 355.428 156.478 365.923 157.86 382.033C158.889 394.03 160.185 409.142 169.156 420.677C190.175 447.7 247.385 404.696 231.371 375.671C224.658 363.504 212.253 356.889 202.709 351.799C189.484 344.746 181.753 340.624 202.278 328.722C237.615 308.231 268.208 269.113 268.208 269.113Z" fill="#1C4AB9"/>
<path d="M363.456 300.416L362.643 302.243L362.643 302.243L363.456 300.416ZM268.208 269.113L268.735 267.184L267.452 266.833L266.632 267.881L268.208 269.113ZM375.535 291.443L377.501 291.072L377.501 291.072L375.535 291.443ZM382.071 242.404L383.762 243.472L383.762 243.472L382.071 242.404ZM451.501 284.022L453.163 285.135L453.163 285.135L451.501 284.022ZM418.392 311.777L417.457 310.01L417.457 310.01L418.392 311.777ZM416.632 330.968L417.853 329.384L417.853 329.384L416.632 330.968ZM502.189 395.269L503.949 396.22L504.77 394.7L503.386 393.667L502.189 395.269ZM41.4492 408.75L40.7306 406.883L38.4795 407.75L39.7482 409.802L41.4492 408.75ZM137.221 366.755L136.171 365.053L136.171 365.053L137.221 366.755ZM157.86 382.033L155.867 382.204L155.867 382.204L157.86 382.033ZM169.156 420.677L167.578 421.905L167.578 421.905L169.156 420.677ZM231.371 375.671L233.122 374.704L233.122 374.704L231.371 375.671ZM202.709 351.799L203.65 350.034L203.65 350.034L202.709 351.799ZM202.278 328.722L203.281 330.452L203.281 330.452L202.278 328.722ZM364.268 298.588C348.753 291.693 324.836 283.836 304.874 277.722C294.877 274.66 285.845 272.026 279.311 270.158C276.045 269.223 273.402 268.48 271.575 267.971C270.662 267.716 269.953 267.52 269.471 267.387C269.231 267.32 269.047 267.27 268.923 267.236C268.862 267.219 268.815 267.206 268.783 267.197C268.767 267.193 268.756 267.19 268.748 267.188C268.744 267.187 268.74 267.186 268.738 267.185C268.737 267.185 268.737 267.185 268.736 267.184C268.735 267.184 268.735 267.184 268.208 269.113C267.68 271.043 267.681 271.043 267.681 271.043C267.682 271.043 267.682 271.043 267.683 271.043C267.685 271.044 267.688 271.045 267.692 271.046C267.699 271.048 267.711 271.051 267.726 271.055C267.757 271.064 267.803 271.076 267.864 271.093C267.986 271.127 268.168 271.177 268.407 271.243C268.885 271.375 269.591 271.57 270.501 271.824C272.32 272.331 274.954 273.072 278.212 274.003C284.728 275.867 293.735 278.493 303.702 281.546C323.669 287.663 347.375 295.458 362.643 302.243L364.268 298.588ZM373.57 291.815C374.096 294.595 374.512 296.815 374.642 298.554C374.78 300.415 374.521 301.084 374.364 301.277C374.363 301.277 374.091 301.693 372.302 301.4C370.568 301.116 367.997 300.246 364.268 298.588L362.643 302.243C366.434 303.928 369.391 304.976 371.655 305.347C373.865 305.71 376.061 305.519 377.459 303.81C378.7 302.293 378.771 300.15 378.631 298.257C378.481 296.243 378.01 293.768 377.501 291.072L373.57 291.815ZM380.38 241.336C367.768 261.308 371.399 280.325 373.57 291.815L377.501 291.072C375.338 279.631 372.046 262.024 383.762 243.472L380.38 241.336ZM453.163 285.135C459.456 275.736 459.531 265.675 455.756 256.646C452.011 247.691 444.501 239.76 435.569 234.229C426.636 228.698 416.089 225.45 406.129 226.088C396.096 226.73 386.701 231.325 380.38 241.336L383.762 243.472C389.331 234.652 397.499 230.648 406.385 230.079C415.344 229.506 425.075 232.437 433.464 237.63C441.854 242.826 448.711 250.167 452.065 258.189C455.389 266.139 455.295 274.761 449.839 282.909L453.163 285.135ZM419.327 313.545C428.469 308.711 442.243 301.441 453.163 285.135L449.839 282.909C439.515 298.326 426.532 305.21 417.457 310.01L419.327 313.545ZM417.853 329.384C414.38 326.706 412.227 324.656 411.042 323.04C409.871 321.442 409.866 320.586 410.019 320.077C410.22 319.411 410.91 318.541 412.618 317.364C414.28 316.218 416.529 315.025 419.327 313.545L417.457 310.01C414.734 311.45 412.246 312.762 410.348 314.07C408.497 315.346 406.804 316.879 406.188 318.926C405.526 321.131 406.274 323.3 407.815 325.404C409.343 327.488 411.862 329.815 415.411 332.552L417.853 329.384ZM503.386 393.667C470.228 368.905 431.514 339.917 417.853 329.384L415.411 332.552C429.103 343.109 467.848 372.12 500.993 396.872L503.386 393.667ZM500.43 394.319C455.799 476.949 368.413 533.081 267.919 533.081V537.081C369.94 537.081 458.648 480.091 503.949 396.22L500.43 394.319ZM267.919 533.081C172.949 533.081 89.6856 482.95 43.1502 407.698L39.7482 409.802C86.982 486.184 171.506 537.081 267.919 537.081V533.081ZM136.171 365.053C118.236 376.12 75.0441 393.671 40.7306 406.883L42.1679 410.616C76.3523 397.454 119.948 379.763 138.271 368.457L136.171 365.053ZM159.853 381.862C159.51 377.865 159.188 374.082 158.601 370.894C158.023 367.755 157.136 364.85 155.441 362.823C153.597 360.616 151.005 359.681 147.733 360.116C144.621 360.53 140.832 362.177 136.171 365.053L138.271 368.457C142.788 365.67 145.996 364.382 148.26 364.081C150.362 363.801 151.523 364.373 152.372 365.388C153.37 366.582 154.114 368.613 154.667 371.619C155.211 374.576 155.519 378.146 155.867 382.204L159.853 381.862ZM170.735 419.449C162.186 408.457 160.891 393.966 159.853 381.862L155.867 382.204C156.887 394.095 158.185 409.828 167.578 421.905L170.735 419.449ZM229.619 376.637C233.238 383.195 232.797 390.639 229.536 397.931C226.264 405.245 220.21 412.242 212.964 417.582C205.713 422.926 197.436 426.488 189.827 427.134C182.282 427.774 175.489 425.561 170.735 419.449L167.578 421.905C173.333 429.304 181.573 431.849 190.166 431.12C198.695 430.396 207.66 426.46 215.337 420.802C223.019 415.141 229.578 407.633 233.187 399.565C236.805 391.475 237.51 382.658 233.122 374.704L229.619 376.637ZM201.768 353.564C211.392 358.696 223.237 365.068 229.619 376.637L233.122 374.704C226.079 361.94 213.113 355.081 203.65 350.034L201.768 353.564ZM201.275 326.992C196.096 329.995 192.51 332.61 190.341 335.019C188.146 337.455 187.129 340.013 187.922 342.654C188.642 345.056 190.725 346.938 193.039 348.537C195.418 350.181 198.496 351.819 201.768 353.564L203.65 350.034C200.309 348.253 197.461 346.731 195.313 345.246C193.099 343.716 192.052 342.502 191.753 341.504C191.525 340.745 191.598 339.6 193.313 337.696C195.053 335.763 198.198 333.4 203.281 330.452L201.275 326.992ZM268.208 269.113C266.632 267.881 266.632 267.881 266.632 267.881C266.632 267.882 266.632 267.882 266.632 267.882C266.631 267.883 266.63 267.885 266.628 267.887C266.625 267.891 266.62 267.897 266.613 267.906C266.599 267.924 266.578 267.95 266.55 267.987C266.493 268.059 266.407 268.167 266.293 268.31C266.064 268.596 265.723 269.021 265.275 269.57C264.379 270.668 263.056 272.263 261.357 274.244C257.96 278.205 253.061 283.702 247.064 289.836C235.051 302.123 218.715 316.879 201.275 326.992L203.281 330.452C221.177 320.075 237.806 305.026 249.924 292.632C255.993 286.425 260.951 280.862 264.394 276.848C266.115 274.841 267.459 273.22 268.374 272.099C268.831 271.538 269.182 271.102 269.419 270.805C269.537 270.657 269.627 270.543 269.688 270.466C269.719 270.427 269.742 270.398 269.758 270.378C269.766 270.368 269.772 270.36 269.776 270.355C269.778 270.352 269.78 270.35 269.781 270.348C269.782 270.348 269.782 270.347 269.783 270.346C269.783 270.346 269.783 270.346 268.208 269.113Z" fill="#F0F1F5"/>
<path d="M260.071 432.936C259.975 432.288 259.759 431.7 259.423 431.172C259.087 430.62 258.667 430.14 258.163 429.732C257.659 429.324 257.083 429.012 256.435 428.796C255.811 428.556 255.151 428.436 254.455 428.436C253.183 428.436 252.103 428.688 251.215 429.192C250.327 429.672 249.607 430.332 249.055 431.172C248.503 431.988 248.095 432.924 247.831 433.98C247.591 435.036 247.471 436.128 247.471 437.256C247.471 438.336 247.591 439.392 247.831 440.424C248.095 441.432 248.503 442.344 249.055 443.16C249.607 443.976 250.327 444.636 251.215 445.14C252.103 445.62 253.183 445.86 254.455 445.86C256.183 445.86 257.527 445.332 258.487 444.276C259.471 443.22 260.071 441.828 260.287 440.1H265.759C265.615 441.708 265.243 443.16 264.643 444.456C264.043 445.752 263.251 446.856 262.267 447.768C261.283 448.68 260.131 449.376 258.811 449.856C257.491 450.336 256.039 450.576 254.455 450.576C252.487 450.576 250.711 450.24 249.127 449.568C247.567 448.872 246.247 447.924 245.167 446.724C244.087 445.524 243.259 444.12 242.683 442.512C242.107 440.88 241.819 439.128 241.819 437.256C241.819 435.336 242.107 433.56 242.683 431.928C243.259 430.272 244.087 428.832 245.167 427.608C246.247 426.384 247.567 425.424 249.127 424.728C250.711 424.032 252.487 423.684 254.455 423.684C255.871 423.684 257.203 423.888 258.451 424.296C259.723 424.704 260.851 425.304 261.835 426.096C262.843 426.864 263.671 427.824 264.319 428.976C264.967 430.128 265.375 431.448 265.543 432.936H260.071ZM290.715 440.28C290.715 443.76 289.743 446.352 287.799 448.056C285.855 449.736 283.167 450.576 279.735 450.576C276.255 450.576 273.555 449.736 271.635 448.056C269.739 446.376 268.791 443.784 268.791 440.28V424.296H274.443V440.28C274.443 440.976 274.503 441.66 274.623 442.332C274.743 443.004 274.995 443.604 275.379 444.132C275.763 444.636 276.291 445.056 276.963 445.392C277.659 445.704 278.583 445.86 279.735 445.86C281.751 445.86 283.143 445.416 283.911 444.528C284.679 443.616 285.063 442.2 285.063 440.28V424.296H290.715V440.28ZM294.862 424.296H300.514V445.248H313.042V450H294.862V424.296ZM317.865 429.048H310.161V424.296H331.221V429.048H323.517V450H317.865V429.048ZM355.281 440.28C355.281 443.76 354.309 446.352 352.365 448.056C350.421 449.736 347.733 450.576 344.301 450.576C340.821 450.576 338.121 449.736 336.201 448.056C334.305 446.376 333.357 443.784 333.357 440.28V424.296H339.009V440.28C339.009 440.976 339.069 441.66 339.189 442.332C339.309 443.004 339.561 443.604 339.945 444.132C340.329 444.636 340.857 445.056 341.529 445.392C342.225 445.704 343.149 445.86 344.301 445.86C346.317 445.86 347.709 445.416 348.477 444.528C349.245 443.616 349.629 442.2 349.629 440.28V424.296H355.281V440.28ZM365.081 435.924H371.273C372.569 435.924 373.541 435.636 374.189 435.06C374.837 434.484 375.161 433.548 375.161 432.252C375.161 431.004 374.837 430.104 374.189 429.552C373.541 428.976 372.569 428.688 371.273 428.688H365.081V435.924ZM359.429 424.296H373.289C374.441 424.296 375.473 424.488 376.385 424.872C377.321 425.232 378.113 425.736 378.761 426.384C379.433 427.032 379.937 427.788 380.273 428.652C380.633 429.492 380.813 430.404 380.813 431.388C380.813 432.9 380.489 434.208 379.841 435.312C379.217 436.416 378.185 437.256 376.745 437.832V437.904C377.441 438.096 378.017 438.396 378.473 438.804C378.929 439.188 379.301 439.656 379.589 440.208C379.877 440.736 380.081 441.324 380.201 441.972C380.345 442.62 380.441 443.268 380.489 443.916C380.513 444.324 380.537 444.804 380.561 445.356C380.585 445.908 380.621 446.472 380.669 447.048C380.741 447.624 380.837 448.176 380.957 448.704C381.101 449.208 381.305 449.64 381.569 450H375.917C375.605 449.184 375.413 448.212 375.341 447.084C375.269 445.956 375.161 444.876 375.017 443.844C374.825 442.5 374.417 441.516 373.793 440.892C373.169 440.268 372.149 439.956 370.733 439.956H365.081V450H359.429V424.296ZM384.689 424.296H403.913V429.048H390.341V434.556H402.797V438.948H390.341V445.248H404.201V450H384.689V424.296Z" fill="white"/>
<path d="M77.7319 227.936C77.6359 227.288 77.4199 226.7 77.0839 226.172C76.7479 225.62 76.3279 225.14 75.8239 224.732C75.3199 224.324 74.7439 224.012 74.0959 223.796C73.4719 223.556 72.8119 223.436 72.1159 223.436C70.8439 223.436 69.7639 223.688 68.8759 224.192C67.9879 224.672 67.2679 225.332 66.7159 226.172C66.1639 226.988 65.7559 227.924 65.4919 228.98C65.2519 230.036 65.1319 231.128 65.1319 232.256C65.1319 233.336 65.2519 234.392 65.4919 235.424C65.7559 236.432 66.1639 237.344 66.7159 238.16C67.2679 238.976 67.9879 239.636 68.8759 240.14C69.7639 240.62 70.8439 240.86 72.1159 240.86C73.8439 240.86 75.1879 240.332 76.1479 239.276C77.1319 238.22 77.7319 236.828 77.9479 235.1H83.4199C83.2759 236.708 82.9039 238.16 82.3039 239.456C81.7039 240.752 80.9119 241.856 79.9279 242.768C78.9439 243.68 77.7919 244.376 76.4719 244.856C75.1519 245.336 73.6999 245.576 72.1159 245.576C70.1479 245.576 68.3719 245.24 66.7879 244.568C65.2279 243.872 63.9079 242.924 62.8279 241.724C61.7479 240.524 60.9199 239.12 60.3439 237.512C59.7679 235.88 59.4799 234.128 59.4799 232.256C59.4799 230.336 59.7679 228.56 60.3439 226.928C60.9199 225.272 61.7479 223.832 62.8279 222.608C63.9079 221.384 65.2279 220.424 66.7879 219.728C68.3719 219.032 70.1479 218.684 72.1159 218.684C73.5319 218.684 74.8639 218.888 76.1119 219.296C77.3839 219.704 78.5119 220.304 79.4959 221.096C80.5039 221.864 81.3319 222.824 81.9799 223.976C82.6279 225.128 83.0359 226.448 83.2039 227.936H77.7319ZM92.2115 230.924H98.4035C99.6995 230.924 100.671 230.636 101.319 230.06C101.967 229.484 102.291 228.548 102.291 227.252C102.291 226.004 101.967 225.104 101.319 224.552C100.671 223.976 99.6995 223.688 98.4035 223.688H92.2115V230.924ZM86.5595 219.296H100.419C101.571 219.296 102.603 219.488 103.515 219.872C104.451 220.232 105.243 220.736 105.891 221.384C106.563 222.032 107.067 222.788 107.403 223.652C107.763 224.492 107.943 225.404 107.943 226.388C107.943 227.9 107.619 229.208 106.971 230.312C106.347 231.416 105.315 232.256 103.875 232.832V232.904C104.571 233.096 105.147 233.396 105.603 233.804C106.059 234.188 106.431 234.656 106.719 235.208C107.007 235.736 107.211 236.324 107.331 236.972C107.475 237.62 107.571 238.268 107.619 238.916C107.643 239.324 107.667 239.804 107.691 240.356C107.715 240.908 107.751 241.472 107.799 242.048C107.871 242.624 107.967 243.176 108.087 243.704C108.231 244.208 108.435 244.64 108.699 245H103.047C102.735 244.184 102.543 243.212 102.471 242.084C102.399 240.956 102.291 239.876 102.147 238.844C101.955 237.5 101.547 236.516 100.923 235.892C100.299 235.268 99.2795 234.956 97.8635 234.956H92.2115V245H86.5595V219.296ZM118.3 235.064H124.96L121.72 225.632H121.648L118.3 235.064ZM118.84 219.296H124.636L134.248 245H128.38L126.436 239.276H116.824L114.808 245H109.12L118.84 219.296ZM135.744 219.296H153.816V224.048H141.396V229.988H152.16V234.38H141.396V245H135.744V219.296ZM162.052 224.048H154.348V219.296H175.408V224.048H167.704V245H162.052V224.048Z" fill="white"/>
<path d="M298.952 159.936C298.856 159.288 298.64 158.7 298.304 158.172C297.968 157.62 297.548 157.14 297.044 156.732C296.54 156.324 295.964 156.012 295.316 155.796C294.692 155.556 294.032 155.436 293.336 155.436C292.064 155.436 290.984 155.688 290.096 156.192C289.208 156.672 288.488 157.332 287.936 158.172C287.384 158.988 286.976 159.924 286.712 160.98C286.472 162.036 286.352 163.128 286.352 164.256C286.352 165.336 286.472 166.392 286.712 167.424C286.976 168.432 287.384 169.344 287.936 170.16C288.488 170.976 289.208 171.636 290.096 172.14C290.984 172.62 292.064 172.86 293.336 172.86C295.064 172.86 296.408 172.332 297.368 171.276C298.352 170.22 298.952 168.828 299.168 167.1H304.64C304.496 168.708 304.124 170.16 303.524 171.456C302.924 172.752 302.132 173.856 301.148 174.768C300.164 175.68 299.012 176.376 297.692 176.856C296.372 177.336 294.92 177.576 293.336 177.576C291.368 177.576 289.592 177.24 288.008 176.568C286.448 175.872 285.128 174.924 284.048 173.724C282.968 172.524 282.14 171.12 281.564 169.512C280.988 167.88 280.7 166.128 280.7 164.256C280.7 162.336 280.988 160.56 281.564 158.928C282.14 157.272 282.968 155.832 284.048 154.608C285.128 153.384 286.448 152.424 288.008 151.728C289.592 151.032 291.368 150.684 293.336 150.684C294.752 150.684 296.084 150.888 297.332 151.296C298.604 151.704 299.732 152.304 300.716 153.096C301.724 153.864 302.552 154.824 303.2 155.976C303.848 157.128 304.256 158.448 304.424 159.936H298.952ZM312.316 164.256C312.316 165.336 312.436 166.392 312.676 167.424C312.94 168.432 313.348 169.344 313.9 170.16C314.452 170.976 315.172 171.636 316.06 172.14C316.948 172.62 318.028 172.86 319.3 172.86C320.572 172.86 321.652 172.62 322.54 172.14C323.428 171.636 324.148 170.976 324.7 170.16C325.252 169.344 325.648 168.432 325.888 167.424C326.152 166.392 326.284 165.336 326.284 164.256C326.284 163.128 326.152 162.036 325.888 160.98C325.648 159.924 325.252 158.988 324.7 158.172C324.148 157.332 323.428 156.672 322.54 156.192C321.652 155.688 320.572 155.436 319.3 155.436C318.028 155.436 316.948 155.688 316.06 156.192C315.172 156.672 314.452 157.332 313.9 158.172C313.348 158.988 312.94 159.924 312.676 160.98C312.436 162.036 312.316 163.128 312.316 164.256ZM306.664 164.256C306.664 162.336 306.952 160.56 307.528 158.928C308.104 157.272 308.932 155.832 310.012 154.608C311.092 153.384 312.412 152.424 313.972 151.728C315.556 151.032 317.332 150.684 319.3 150.684C321.292 150.684 323.068 151.032 324.628 151.728C326.188 152.424 327.508 153.384 328.588 154.608C329.668 155.832 330.496 157.272 331.072 158.928C331.648 160.56 331.936 162.336 331.936 164.256C331.936 166.128 331.648 167.88 331.072 169.512C330.496 171.12 329.668 172.524 328.588 173.724C327.508 174.924 326.188 175.872 324.628 176.568C323.068 177.24 321.292 177.576 319.3 177.576C317.332 177.576 315.556 177.24 313.972 176.568C312.412 175.872 311.092 174.924 310.012 173.724C308.932 172.524 308.104 171.12 307.528 169.512C306.952 167.88 306.664 166.128 306.664 164.256ZM335.08 151.296H343.036L349.048 168.972H349.12L354.808 151.296H362.764V177H357.472V158.784H357.4L351.1 177H346.744L340.444 158.964H340.372V177H335.08V151.296ZM367.02 151.296H374.976L380.988 168.972H381.06L386.748 151.296H394.704V177H389.412V158.784H389.34L383.04 177H378.684L372.384 158.964H372.312V177H367.02V151.296ZM398.96 151.296H418.184V156.048H404.612V161.556H417.068V165.948H404.612V172.248H418.472V177H398.96V151.296ZM427.236 162.924H433.428C434.724 162.924 435.696 162.636 436.344 162.06C436.992 161.484 437.316 160.548 437.316 159.252C437.316 158.004 436.992 157.104 436.344 156.552C435.696 155.976 434.724 155.688 433.428 155.688H427.236V162.924ZM421.584 151.296H435.444C436.596 151.296 437.628 151.488 438.54 151.872C439.476 152.232 440.268 152.736 440.916 153.384C441.588 154.032 442.092 154.788 442.428 155.652C442.788 156.492 442.968 157.404 442.968 158.388C442.968 159.9 442.644 161.208 441.996 162.312C441.372 163.416 440.34 164.256 438.9 164.832V164.904C439.596 165.096 440.172 165.396 440.628 165.804C441.084 166.188 441.456 166.656 441.744 167.208C442.032 167.736 442.236 168.324 442.356 168.972C442.5 169.62 442.596 170.268 442.644 170.916C442.668 171.324 442.692 171.804 442.716 172.356C442.74 172.908 442.776 173.472 442.824 174.048C442.896 174.624 442.992 175.176 443.112 175.704C443.256 176.208 443.46 176.64 443.724 177H438.072C437.76 176.184 437.568 175.212 437.496 174.084C437.424 172.956 437.316 171.876 437.172 170.844C436.98 169.5 436.572 168.516 435.948 167.892C435.324 167.268 434.304 166.956 432.888 166.956H427.236V177H421.584V151.296ZM463.98 159.936C463.884 159.288 463.668 158.7 463.332 158.172C462.996 157.62 462.576 157.14 462.072 156.732C461.568 156.324 460.992 156.012 460.344 155.796C459.72 155.556 459.06 155.436 458.364 155.436C457.092 155.436 456.012 155.688 455.124 156.192C454.236 156.672 453.516 157.332 452.964 158.172C452.412 158.988 452.004 159.924 451.74 160.98C451.5 162.036 451.38 163.128 451.38 164.256C451.38 165.336 451.5 166.392 451.74 167.424C452.004 168.432 452.412 169.344 452.964 170.16C453.516 170.976 454.236 171.636 455.124 172.14C456.012 172.62 457.092 172.86 458.364 172.86C460.092 172.86 461.436 172.332 462.396 171.276C463.38 170.22 463.98 168.828 464.196 167.1H469.668C469.524 168.708 469.152 170.16 468.552 171.456C467.952 172.752 467.16 173.856 466.176 174.768C465.192 175.68 464.04 176.376 462.72 176.856C461.4 177.336 459.948 177.576 458.364 177.576C456.396 177.576 454.62 177.24 453.036 176.568C451.476 175.872 450.156 174.924 449.076 173.724C447.996 172.524 447.168 171.12 446.592 169.512C446.016 167.88 445.728 166.128 445.728 164.256C445.728 162.336 446.016 160.56 446.592 158.928C447.168 157.272 447.996 155.832 449.076 154.608C450.156 153.384 451.476 152.424 453.036 151.728C454.62 151.032 456.396 150.684 458.364 150.684C459.78 150.684 461.112 150.888 462.36 151.296C463.632 151.704 464.76 152.304 465.744 153.096C466.752 153.864 467.58 154.824 468.228 155.976C468.876 157.128 469.284 158.448 469.452 159.936H463.98ZM472.808 151.296H492.032V156.048H478.46V161.556H490.916V165.948H478.46V172.248H492.32V177H472.808V151.296Z" fill="white"/>
</svg>
