<svg width="537" height="538" viewBox="0 0 537 538" fill="none" xmlns="http://www.w3.org/2000/svg">
<g opacity="0.2">
<path fill-rule="evenodd" clip-rule="evenodd" d="M265.459 2.93256C260.828 29.5663 252.452 81.8879 252.452 111.956C252.452 134.199 247.396 130.34 236.401 121.948C226.855 114.661 212.83 103.956 193.752 103.956C152.701 103.956 152.731 190.607 193.752 190.607C213.443 190.607 227.757 183.443 237.317 178.658C247.673 173.475 252.452 171.082 252.452 183.607C252.452 207.694 268.209 269.046 268.209 269.046C268.209 269.046 332.834 286.735 363.617 300.416C378.656 307.1 377.767 302.395 375.697 291.443C373.53 279.978 370.069 261.666 382.232 242.404C406.015 204.743 472.752 252.527 451.662 284.022C442.507 297.694 429.9 304.618 420.66 309.694C408.614 316.31 402.289 319.784 416.793 330.968C430.47 341.513 469.199 370.513 502.351 395.269C522.643 357.7 534.161 314.695 534.161 269C534.161 122.048 415.033 2.91992 268.081 2.91992C267.206 2.91992 266.332 2.92414 265.459 2.93256Z" fill="#1CB9B1"/>
<path d="M265.459 2.93256L265.44 0.932658L263.774 0.948733L263.489 2.58992L265.459 2.93256ZM236.401 121.948L237.615 120.358L237.615 120.358L236.401 121.948ZM237.317 178.658L236.422 176.869L236.422 176.869L237.317 178.658ZM268.209 269.046L266.271 269.543L266.56 270.668L267.681 270.975L268.209 269.046ZM363.617 300.416L362.805 302.243L362.805 302.243L363.617 300.416ZM375.697 291.443L377.662 291.072L377.662 291.072L375.697 291.443ZM382.232 242.404L383.923 243.472L383.923 243.472L382.232 242.404ZM451.662 284.022L453.324 285.135L453.324 285.135L451.662 284.022ZM420.66 309.694L419.697 307.941L419.697 307.941L420.66 309.694ZM416.793 330.968L418.015 329.384L418.015 329.384L416.793 330.968ZM502.351 395.269L501.154 396.872L503.01 398.257L504.11 396.22L502.351 395.269ZM254.452 111.956C254.452 82.0926 262.792 29.9481 267.43 3.27521L263.489 2.58992C258.864 29.1845 250.452 81.6832 250.452 111.956H254.452ZM235.188 123.537C237.901 125.608 240.385 127.508 242.53 128.777C243.61 129.415 244.691 129.947 245.748 130.258C246.808 130.57 247.964 130.693 249.108 130.361C251.524 129.659 252.752 127.336 253.433 124.557C254.139 121.678 254.452 117.549 254.452 111.956H250.452C250.452 117.484 250.134 121.214 249.548 123.605C248.937 126.097 248.214 126.455 247.992 126.52C247.817 126.57 247.482 126.599 246.876 126.42C246.266 126.241 245.506 125.889 244.566 125.333C242.67 124.213 240.399 122.483 237.615 120.358L235.188 123.537ZM193.752 105.956C212.076 105.956 225.604 116.222 235.188 123.537L237.615 120.358C228.105 113.099 213.585 101.956 193.752 101.956V105.956ZM193.752 188.607C184.323 188.607 177.21 183.673 172.364 176C167.484 168.271 164.976 157.835 164.975 147.281C164.973 136.727 167.476 126.291 172.356 118.563C177.2 110.89 184.315 105.956 193.752 105.956V101.956C182.662 101.956 174.387 107.853 168.974 116.427C163.595 124.946 160.973 136.173 160.975 147.282C160.977 158.391 163.603 169.617 168.982 178.136C174.396 186.71 182.669 192.607 193.752 192.607V188.607ZM236.422 176.869C226.887 181.641 212.939 188.607 193.752 188.607V192.607C213.948 192.607 228.626 185.244 238.212 180.446L236.422 176.869ZM254.452 183.607C254.452 180.415 254.158 177.885 253.388 176.048C252.991 175.099 252.437 174.261 251.665 173.626C250.879 172.979 249.974 172.63 249.023 172.508C247.236 172.279 245.256 172.851 243.312 173.625C241.31 174.421 238.984 175.587 236.422 176.869L238.212 180.446C240.828 179.137 242.983 178.06 244.79 177.342C246.654 176.6 247.811 176.385 248.513 176.476C248.807 176.513 248.985 176.601 249.123 176.715C249.275 176.84 249.487 177.087 249.699 177.594C250.149 178.669 250.452 180.537 250.452 183.607H254.452ZM268.209 269.046C270.146 268.548 270.146 268.548 270.146 268.548C270.145 268.547 270.145 268.547 270.145 268.546C270.145 268.544 270.144 268.541 270.143 268.538C270.141 268.53 270.138 268.52 270.135 268.505C270.127 268.476 270.116 268.432 270.101 268.374C270.072 268.258 270.028 268.086 269.97 267.859C269.855 267.406 269.687 266.738 269.472 265.878C269.042 264.158 268.428 261.672 267.691 258.614C266.216 252.498 264.251 244.093 262.286 234.939C258.338 216.549 254.452 195.401 254.452 183.607H250.452C250.452 195.9 254.445 217.472 258.375 235.779C260.349 244.974 262.322 253.413 263.802 259.552C264.542 262.622 265.159 265.118 265.591 266.847C265.807 267.712 265.977 268.385 266.093 268.842C266.151 269.071 266.195 269.246 266.225 269.363C266.24 269.422 266.252 269.467 266.26 269.497C266.263 269.512 266.266 269.523 266.268 269.531C266.269 269.535 266.27 269.538 266.271 269.54C266.271 269.541 266.271 269.542 266.271 269.542C266.271 269.543 266.271 269.543 268.209 269.046ZM364.429 298.588C348.915 291.693 324.957 283.82 304.955 277.688C294.939 274.617 285.886 271.975 279.338 270.101C276.063 269.163 273.415 268.418 271.584 267.906C270.668 267.65 269.957 267.453 269.475 267.32C269.233 267.253 269.049 267.202 268.925 267.168C268.863 267.151 268.816 267.138 268.785 267.13C268.769 267.125 268.757 267.122 268.749 267.12C268.745 267.119 268.742 267.118 268.74 267.117C268.739 267.117 268.738 267.117 268.737 267.117C268.737 267.117 268.737 267.117 268.209 269.046C267.681 270.975 267.681 270.975 267.681 270.975C267.682 270.975 267.682 270.975 267.683 270.975C267.685 270.976 267.688 270.977 267.692 270.978C267.699 270.98 267.711 270.983 267.726 270.987C267.757 270.996 267.803 271.008 267.865 271.025C267.987 271.059 268.169 271.109 268.409 271.175C268.888 271.308 269.596 271.504 270.507 271.759C272.331 272.268 274.972 273.011 278.237 273.946C284.768 275.816 293.796 278.451 303.783 281.512C323.79 287.646 347.536 295.457 362.805 302.243L364.429 298.588ZM373.732 291.815C374.257 294.595 374.674 296.815 374.803 298.554C374.941 300.415 374.683 301.084 374.525 301.277C374.525 301.277 374.252 301.693 372.464 301.4C370.729 301.116 368.158 300.246 364.429 298.588L362.805 302.243C366.595 303.928 369.553 304.976 371.816 305.347C374.026 305.71 376.222 305.519 377.621 303.81C378.862 302.293 378.933 300.15 378.792 298.257C378.642 296.243 378.172 293.768 377.662 291.072L373.732 291.815ZM380.541 241.336C367.929 261.308 371.56 280.325 373.732 291.815L377.662 291.072C375.5 279.631 372.208 262.024 383.923 243.472L380.541 241.336ZM453.324 285.135C459.063 276.565 458.756 266.922 454.886 258.13C451.037 249.386 443.634 241.36 434.872 235.608C426.111 229.856 415.796 226.248 406.01 226.591C396.132 226.936 386.868 231.317 380.541 241.336L383.923 243.472C389.487 234.661 397.485 230.891 406.149 230.588C414.906 230.282 424.416 233.528 432.677 238.951C440.935 244.374 447.749 251.845 451.225 259.742C454.68 267.591 454.807 275.732 450 282.909L453.324 285.135ZM421.623 311.447C430.856 306.375 443.87 299.253 453.324 285.135L450 282.909C441.145 296.134 428.945 302.861 419.697 307.941L421.623 311.447ZM418.015 329.384C414.443 326.63 412.345 324.49 411.278 322.792C410.264 321.179 410.292 320.174 410.619 319.38C411.026 318.392 412.08 317.264 414.075 315.879C416.03 314.521 418.58 313.118 421.623 311.447L419.697 307.941C416.716 309.578 413.958 311.09 411.793 312.594C409.667 314.07 407.788 315.75 406.921 317.856C405.974 320.156 406.388 322.53 407.891 324.921C409.341 327.226 411.891 329.713 415.572 332.552L418.015 329.384ZM503.547 393.667C470.389 368.905 431.676 339.918 418.015 329.384L415.572 332.552C429.264 343.109 468.009 372.12 501.154 396.872L503.547 393.667ZM532.161 269C532.161 314.355 520.729 357.034 500.591 394.319L504.11 396.22C524.556 358.366 536.161 315.035 536.161 269H532.161ZM268.081 4.91992C413.928 4.91992 532.161 123.153 532.161 269H536.161C536.161 120.944 416.137 0.919922 268.081 0.919922V4.91992ZM265.479 4.93247C266.345 4.92411 267.212 4.91992 268.081 4.91992V0.919922C267.199 0.919922 266.319 0.924174 265.44 0.932658L265.479 4.93247Z" fill="#F0F1F5"/>
</g>
<g opacity="0.2">
<path fill-rule="evenodd" clip-rule="evenodd" d="M268.37 269.113C268.37 269.113 237.776 308.231 202.44 328.722C181.915 340.623 189.646 344.746 202.871 351.799C212.414 356.888 224.82 363.504 231.532 375.67C247.547 404.696 190.336 447.7 169.318 420.676C160.347 409.142 159.051 394.03 158.022 382.033C156.64 365.922 155.74 355.428 137.383 366.755C119.271 377.93 75.941 395.529 41.7069 408.712C16.6315 368.121 2.16113 320.284 2.16113 269.068C2.16113 122.99 119.875 4.40652 265.621 3C260.989 29.6337 252.613 81.9554 252.613 112.023C252.613 134.267 247.557 130.407 236.563 122.015C227.016 114.728 212.992 104.023 193.913 104.023C152.862 104.023 152.892 190.674 193.913 190.674C213.605 190.674 227.918 183.51 237.478 178.725C247.834 173.542 252.613 171.15 252.613 183.674C252.613 207.762 268.37 269.113 268.37 269.113Z" fill="#F56293"/>
<path d="M202.44 328.722L201.436 326.992L201.436 326.992L202.44 328.722ZM268.37 269.113L269.945 270.345L270.552 269.569L270.307 268.616L268.37 269.113ZM202.871 351.799L201.929 353.563L201.929 353.563L202.871 351.799ZM231.532 375.67L229.781 376.636L229.781 376.636L231.532 375.67ZM169.318 420.676L167.739 421.904L167.739 421.904L169.318 420.676ZM158.022 382.033L160.015 381.862L160.015 381.862L158.022 382.033ZM137.383 366.755L136.333 365.053L136.333 365.053L137.383 366.755ZM41.7069 408.712L40.0054 409.764L40.8774 411.175L42.4257 410.579L41.7069 408.712ZM265.621 3L267.591 3.34265L268.002 0.976922L265.601 1.00009L265.621 3ZM236.563 122.015L235.349 123.605L235.349 123.605L236.563 122.015ZM237.478 178.725L236.583 176.937L236.583 176.937L237.478 178.725ZM203.443 330.452C221.339 320.074 237.968 305.026 250.086 292.631C256.155 286.424 261.113 280.861 264.555 276.847C266.277 274.84 267.621 273.22 268.536 272.098C268.993 271.538 269.344 271.102 269.581 270.805C269.699 270.657 269.789 270.543 269.85 270.466C269.881 270.427 269.904 270.398 269.92 270.377C269.928 270.367 269.934 270.36 269.938 270.354C269.94 270.351 269.942 270.349 269.943 270.348C269.944 270.347 269.944 270.346 269.944 270.346C269.945 270.346 269.945 270.345 268.37 269.113C266.794 267.881 266.794 267.881 266.794 267.881C266.794 267.881 266.794 267.881 266.794 267.882C266.793 267.883 266.792 267.884 266.79 267.886C266.787 267.89 266.782 267.897 266.775 267.906C266.761 267.923 266.74 267.95 266.711 267.986C266.655 268.058 266.569 268.167 266.454 268.31C266.226 268.596 265.885 269.02 265.437 269.569C264.54 270.667 263.218 272.263 261.519 274.243C258.121 278.205 253.223 283.702 247.226 289.835C235.213 302.122 218.877 316.878 201.436 326.992L203.443 330.452ZM203.812 350.034C200.471 348.252 197.623 346.73 195.475 345.246C193.261 343.716 192.214 342.502 191.915 341.504C191.687 340.744 191.76 339.599 193.474 337.695C195.215 335.763 198.359 333.4 203.443 330.452L201.436 326.992C196.258 329.995 192.672 332.61 190.502 335.018C188.307 337.455 187.291 340.013 188.083 342.653C188.804 345.055 190.887 346.938 193.201 348.537C195.58 350.18 198.658 351.819 201.929 353.563L203.812 350.034ZM233.284 374.704C226.241 361.939 213.275 355.08 203.812 350.034L201.929 353.563C211.554 358.696 223.399 365.068 229.781 376.636L233.284 374.704ZM167.739 421.904C173.495 429.304 181.734 431.849 190.327 431.119C198.856 430.395 207.822 426.459 215.499 420.802C223.181 415.14 229.74 407.632 233.349 399.564C236.967 391.474 237.672 382.658 233.284 374.704L229.781 376.636C233.4 383.195 232.959 390.639 229.697 397.931C226.426 405.245 220.372 412.241 213.126 417.582C205.875 422.925 197.598 426.488 189.989 427.134C182.444 427.774 175.651 425.561 170.897 419.448L167.739 421.904ZM156.029 382.204C157.049 394.095 158.346 409.827 167.739 421.904L170.897 419.448C162.347 408.456 161.053 393.965 160.015 381.862L156.029 382.204ZM138.433 368.457C142.95 365.67 146.158 364.382 148.421 364.081C150.524 363.801 151.685 364.372 152.534 365.387C153.532 366.581 154.276 368.613 154.829 371.618C155.373 374.576 155.681 378.146 156.029 382.204L160.015 381.862C159.672 377.864 159.349 374.081 158.763 370.894C158.185 367.754 157.297 364.85 155.603 362.822C153.759 360.616 151.167 359.68 147.894 360.115C144.783 360.529 140.994 362.177 136.333 365.053L138.433 368.457ZM42.4257 410.579C76.5953 397.42 120.127 379.752 138.433 368.457L136.333 365.053C118.414 376.109 75.2867 393.638 40.9882 406.846L42.4257 410.579ZM43.4085 407.661C18.5225 367.377 4.16113 319.902 4.16113 269.068H0.161133C0.161133 320.666 14.7405 368.865 40.0054 409.764L43.4085 407.661ZM4.16113 269.068C4.16113 124.088 120.991 6.39585 265.64 4.99991L265.601 1.00009C118.76 2.41719 0.161133 121.892 0.161133 269.068H4.16113ZM254.613 112.023C254.613 82.1601 262.953 30.0155 267.591 3.34265L263.65 2.65736C259.025 29.252 250.613 81.7506 250.613 112.023H254.613ZM235.349 123.605C238.062 125.676 240.546 127.576 242.691 128.844C243.771 129.482 244.852 130.015 245.909 130.325C246.969 130.637 248.125 130.761 249.269 130.428C251.685 129.726 252.913 127.403 253.594 124.625C254.3 121.746 254.613 117.617 254.613 112.023H250.613C250.613 117.552 250.295 121.282 249.709 123.673C249.098 126.164 248.375 126.522 248.153 126.587C247.978 126.638 247.643 126.666 247.037 126.488C246.427 126.309 245.667 125.957 244.727 125.401C242.831 124.28 240.56 122.551 237.776 120.425L235.349 123.605ZM193.913 106.023C212.237 106.023 225.765 116.29 235.349 123.605L237.776 120.425C228.266 113.166 213.746 102.023 193.913 102.023V106.023ZM193.913 188.674C184.484 188.674 177.371 183.74 172.525 176.067C167.645 168.339 165.138 157.902 165.136 147.348C165.134 136.794 167.637 126.359 172.517 118.63C177.361 110.958 184.476 106.023 193.913 106.023V102.023C182.824 102.023 174.548 107.92 169.135 116.495C163.756 125.014 161.134 136.24 161.136 147.349C161.138 158.458 163.764 169.684 169.143 178.203C174.558 186.777 182.831 192.674 193.913 192.674V188.674ZM236.583 176.937C227.049 181.709 213.1 188.674 193.913 188.674V192.674C214.109 192.674 228.787 185.312 238.373 180.514L236.583 176.937ZM254.613 183.674C254.613 180.482 254.319 177.953 253.55 176.116C253.152 175.167 252.598 174.329 251.826 173.693C251.04 173.047 250.135 172.698 249.184 172.576C247.397 172.346 245.417 172.919 243.473 173.692C241.471 174.488 239.145 175.654 236.583 176.937L238.373 180.514C240.989 179.205 243.144 178.128 244.951 177.409C246.815 176.668 247.972 176.453 248.674 176.543C248.968 176.581 249.146 176.668 249.284 176.782C249.436 176.907 249.648 177.154 249.86 177.661C250.311 178.736 250.613 180.604 250.613 183.674H254.613ZM268.37 269.113C270.307 268.616 270.307 268.615 270.307 268.615C270.307 268.615 270.306 268.614 270.306 268.613C270.306 268.611 270.305 268.609 270.304 268.605C270.302 268.598 270.299 268.587 270.296 268.572C270.288 268.543 270.277 268.5 270.262 268.442C270.233 268.326 270.189 268.153 270.131 267.927C270.017 267.474 269.848 266.805 269.633 265.945C269.203 264.225 268.589 261.74 267.852 258.682C266.378 252.565 264.412 244.16 262.447 235.007C258.499 216.616 254.613 195.468 254.613 183.674H250.613C250.613 195.968 254.606 217.539 258.536 235.846C260.51 245.041 262.484 253.48 263.963 259.619C264.703 262.689 265.32 265.185 265.752 266.915C265.968 267.779 266.138 268.452 266.254 268.91C266.312 269.138 266.357 269.313 266.387 269.431C266.402 269.49 266.413 269.534 266.421 269.565C266.425 269.58 266.427 269.591 266.429 269.599C266.43 269.602 266.431 269.605 266.432 269.607C266.432 269.608 266.432 269.609 266.432 269.61C266.432 269.61 266.433 269.611 268.37 269.113Z" fill="#F0F1F5"/>
</g>
<path fill-rule="evenodd" clip-rule="evenodd" d="M268.369 269.113C268.369 269.113 332.834 286.735 363.617 300.416C378.656 307.1 377.767 302.395 375.697 291.443C373.529 279.978 370.068 261.666 382.232 242.404C406.014 204.743 476 247.676 451.662 284.022C440.511 300.674 426.879 307.774 417.845 312.479C407.16 318.044 402.905 320.259 416.793 330.968C430.47 341.513 469.199 370.513 502.35 395.269C457.385 478.52 369.338 535.081 268.08 535.081C172.389 535.081 88.4949 484.567 41.6103 408.75C75.8594 395.562 119.253 377.941 137.382 366.755C155.74 355.428 156.64 365.923 158.021 382.033C159.05 394.03 160.346 409.142 169.317 420.677C190.336 447.7 247.546 404.696 231.532 375.671C224.819 363.504 212.414 356.889 202.87 351.799C189.645 344.746 181.914 340.624 202.439 328.722C237.776 308.231 268.369 269.113 268.369 269.113Z" fill="#1C4AB9"/>
<path d="M363.617 300.416L362.804 302.243L362.804 302.243L363.617 300.416ZM268.369 269.113L268.896 267.184L267.613 266.833L266.794 267.881L268.369 269.113ZM375.697 291.443L377.662 291.072L377.662 291.072L375.697 291.443ZM382.232 242.404L383.923 243.472L383.923 243.472L382.232 242.404ZM451.662 284.022L450 282.909L450 282.909L451.662 284.022ZM417.845 312.479L418.769 314.253L418.769 314.253L417.845 312.479ZM416.793 330.968L418.014 329.384L418.014 329.384L416.793 330.968ZM502.35 395.269L504.11 396.22L504.931 394.7L503.547 393.667L502.35 395.269ZM41.6103 408.75L40.8917 406.883L38.6406 407.75L39.9093 409.802L41.6103 408.75ZM137.382 366.755L136.332 365.053L136.332 365.053L137.382 366.755ZM158.021 382.033L156.029 382.204L156.029 382.204L158.021 382.033ZM169.317 420.677L167.739 421.905L167.739 421.905L169.317 420.677ZM231.532 375.671L233.283 374.704L233.283 374.704L231.532 375.671ZM202.87 351.799L203.811 350.034L203.811 350.034L202.87 351.799ZM202.439 328.722L203.442 330.452L203.442 330.452L202.439 328.722ZM364.429 298.588C348.915 291.693 324.997 283.836 305.035 277.722C295.038 274.66 286.006 272.026 279.473 270.158C276.206 269.223 273.563 268.48 271.737 267.971C270.823 267.716 270.114 267.52 269.633 267.387C269.392 267.32 269.208 267.27 269.085 267.236C269.023 267.219 268.976 267.206 268.944 267.197C268.929 267.193 268.917 267.19 268.909 267.188C268.905 267.187 268.902 267.186 268.9 267.185C268.899 267.185 268.898 267.185 268.897 267.184C268.897 267.184 268.896 267.184 268.369 269.113C267.842 271.043 267.842 271.043 267.842 271.043C267.843 271.043 267.843 271.043 267.844 271.043C267.846 271.044 267.849 271.045 267.853 271.046C267.86 271.048 267.872 271.051 267.887 271.055C267.918 271.064 267.964 271.076 268.025 271.093C268.147 271.127 268.329 271.177 268.568 271.243C269.046 271.375 269.752 271.57 270.662 271.824C272.481 272.331 275.115 273.072 278.373 274.003C284.889 275.867 293.896 278.493 303.864 281.546C323.83 287.663 347.536 295.458 362.804 302.243L364.429 298.588ZM373.731 291.815C374.257 294.595 374.674 296.815 374.803 298.554C374.941 300.415 374.682 301.084 374.525 301.277C374.524 301.277 374.252 301.693 372.463 301.4C370.729 301.116 368.158 300.246 364.429 298.588L362.804 302.243C366.595 303.928 369.552 304.976 371.816 305.347C374.026 305.71 376.222 305.519 377.62 303.81C378.861 302.293 378.932 300.15 378.792 298.257C378.642 296.243 378.171 293.768 377.662 291.072L373.731 291.815ZM380.541 241.336C367.929 261.308 371.56 280.325 373.731 291.815L377.662 291.072C375.499 279.631 372.208 262.024 383.923 243.472L380.541 241.336ZM453.324 285.135C459.812 275.446 460.016 265.238 456.276 256.13C452.568 247.1 445.02 239.203 436.029 233.75C427.035 228.295 416.409 225.173 406.389 225.913C396.301 226.658 386.861 231.328 380.541 241.336L383.923 243.472C389.494 234.649 397.721 230.564 406.683 229.902C415.714 229.235 425.522 232.056 433.955 237.17C442.391 242.287 449.263 249.583 452.576 257.649C455.856 265.637 455.681 274.425 450 282.909L453.324 285.135ZM418.769 314.253C427.851 309.522 441.876 302.231 453.324 285.135L450 282.909C439.147 299.117 425.907 306.025 416.921 310.705L418.769 314.253ZM418.014 329.384C414.575 326.732 412.405 324.713 411.18 323.123C409.952 321.529 409.933 320.714 410.041 320.291C410.182 319.742 410.743 318.964 412.352 317.858C413.914 316.785 416.057 315.665 418.769 314.253L416.921 310.705C414.29 312.075 411.895 313.319 410.087 314.561C408.328 315.77 406.689 317.259 406.167 319.298C405.612 321.464 406.465 323.558 408.012 325.565C409.561 327.576 412.068 329.85 415.572 332.552L418.014 329.384ZM503.547 393.667C470.389 368.905 431.676 339.917 418.014 329.384L415.572 332.552C429.264 343.109 468.009 372.12 501.154 396.872L503.547 393.667ZM500.591 394.319C455.96 476.949 368.574 533.081 268.08 533.081V537.081C370.102 537.081 458.809 480.091 504.11 396.22L500.591 394.319ZM268.08 533.081C173.11 533.081 89.8468 482.95 43.3114 407.698L39.9093 409.802C87.1431 486.184 171.667 537.081 268.08 537.081V533.081ZM136.332 365.053C118.397 376.12 75.2053 393.671 40.8917 406.883L42.329 410.616C76.5135 397.454 120.11 379.763 138.432 368.457L136.332 365.053ZM160.014 381.862C159.671 377.865 159.349 374.082 158.762 370.894C158.184 367.755 157.297 364.85 155.602 362.823C153.758 360.616 151.166 359.681 147.894 360.116C144.782 360.53 140.994 362.177 136.332 365.053L138.432 368.457C142.949 365.67 146.157 364.382 148.421 364.081C150.523 363.801 151.685 364.373 152.533 365.388C153.531 366.582 154.275 368.613 154.828 371.619C155.372 374.576 155.681 378.146 156.029 382.204L160.014 381.862ZM170.896 419.449C162.347 408.457 161.052 393.966 160.014 381.862L156.029 382.204C157.048 394.095 158.346 409.828 167.739 421.905L170.896 419.449ZM229.781 376.637C233.399 383.195 232.958 390.639 229.697 397.931C226.425 405.245 220.371 412.242 213.125 417.582C205.874 422.926 197.597 426.488 189.988 427.134C182.443 427.774 175.65 425.561 170.896 419.449L167.739 421.905C173.494 429.304 181.734 431.849 190.327 431.12C198.856 430.396 207.821 426.46 215.498 420.802C223.18 415.141 229.74 407.633 233.348 399.565C236.966 391.475 237.671 382.658 233.283 374.704L229.781 376.637ZM201.929 353.564C211.553 358.696 223.398 365.068 229.781 376.637L233.283 374.704C226.24 361.94 213.274 355.081 203.811 350.034L201.929 353.564ZM201.436 326.992C196.257 329.995 192.671 332.61 190.502 335.019C188.307 337.455 187.29 340.013 188.083 342.654C188.803 345.056 190.886 346.938 193.2 348.537C195.579 350.181 198.657 351.819 201.929 353.564L203.811 350.034C200.47 348.253 197.623 346.731 195.474 345.246C193.26 343.716 192.213 342.502 191.914 341.504C191.686 340.745 191.759 339.6 193.474 337.696C195.214 335.763 198.359 333.4 203.442 330.452L201.436 326.992ZM268.369 269.113C266.794 267.881 266.794 267.881 266.794 267.881C266.793 267.882 266.793 267.882 266.793 267.882C266.792 267.883 266.791 267.885 266.789 267.887C266.786 267.891 266.781 267.897 266.774 267.906C266.76 267.924 266.739 267.95 266.711 267.987C266.654 268.059 266.568 268.167 266.454 268.31C266.225 268.596 265.884 269.021 265.436 269.57C264.54 270.668 263.217 272.263 261.519 274.244C258.121 278.205 253.222 283.702 247.225 289.836C235.212 302.123 218.876 316.879 201.436 326.992L203.442 330.452C221.338 320.075 237.968 305.026 250.085 292.632C256.154 286.425 261.112 280.862 264.555 276.848C266.276 274.841 267.62 273.22 268.535 272.099C268.992 271.538 269.343 271.102 269.58 270.805C269.698 270.657 269.788 270.543 269.85 270.466C269.88 270.427 269.903 270.398 269.919 270.378C269.927 270.368 269.933 270.36 269.937 270.355C269.939 270.352 269.941 270.35 269.942 270.348C269.943 270.348 269.943 270.347 269.944 270.346C269.944 270.346 269.944 270.346 268.369 269.113Z" fill="#F0F1F5"/>
<path d="M260.232 432.936C260.136 432.288 259.92 431.7 259.584 431.172C259.248 430.62 258.828 430.14 258.324 429.732C257.82 429.324 257.244 429.012 256.596 428.796C255.972 428.556 255.312 428.436 254.616 428.436C253.344 428.436 252.264 428.688 251.376 429.192C250.488 429.672 249.768 430.332 249.216 431.172C248.664 431.988 248.256 432.924 247.992 433.98C247.752 435.036 247.632 436.128 247.632 437.256C247.632 438.336 247.752 439.392 247.992 440.424C248.256 441.432 248.664 442.344 249.216 443.16C249.768 443.976 250.488 444.636 251.376 445.14C252.264 445.62 253.344 445.86 254.616 445.86C256.344 445.86 257.688 445.332 258.648 444.276C259.632 443.22 260.232 441.828 260.448 440.1H265.92C265.776 441.708 265.404 443.16 264.804 444.456C264.204 445.752 263.412 446.856 262.428 447.768C261.444 448.68 260.292 449.376 258.972 449.856C257.652 450.336 256.2 450.576 254.616 450.576C252.648 450.576 250.872 450.24 249.288 449.568C247.728 448.872 246.408 447.924 245.328 446.724C244.248 445.524 243.42 444.12 242.844 442.512C242.268 440.88 241.98 439.128 241.98 437.256C241.98 435.336 242.268 433.56 242.844 431.928C243.42 430.272 244.248 428.832 245.328 427.608C246.408 426.384 247.728 425.424 249.288 424.728C250.872 424.032 252.648 423.684 254.616 423.684C256.032 423.684 257.364 423.888 258.612 424.296C259.884 424.704 261.012 425.304 261.996 426.096C263.004 426.864 263.832 427.824 264.48 428.976C265.128 430.128 265.536 431.448 265.704 432.936H260.232ZM290.876 440.28C290.876 443.76 289.904 446.352 287.96 448.056C286.016 449.736 283.328 450.576 279.896 450.576C276.416 450.576 273.716 449.736 271.796 448.056C269.9 446.376 268.952 443.784 268.952 440.28V424.296H274.604V440.28C274.604 440.976 274.664 441.66 274.784 442.332C274.904 443.004 275.156 443.604 275.54 444.132C275.924 444.636 276.452 445.056 277.124 445.392C277.82 445.704 278.744 445.86 279.896 445.86C281.912 445.86 283.304 445.416 284.072 444.528C284.84 443.616 285.224 442.2 285.224 440.28V424.296H290.876V440.28ZM295.023 424.296H300.675V445.248H313.203V450H295.023V424.296ZM318.026 429.048H310.322V424.296H331.382V429.048H323.678V450H318.026V429.048ZM355.442 440.28C355.442 443.76 354.47 446.352 352.526 448.056C350.582 449.736 347.894 450.576 344.462 450.576C340.982 450.576 338.282 449.736 336.362 448.056C334.466 446.376 333.518 443.784 333.518 440.28V424.296H339.17V440.28C339.17 440.976 339.23 441.66 339.35 442.332C339.47 443.004 339.722 443.604 340.106 444.132C340.49 444.636 341.018 445.056 341.69 445.392C342.386 445.704 343.31 445.86 344.462 445.86C346.478 445.86 347.87 445.416 348.638 444.528C349.406 443.616 349.79 442.2 349.79 440.28V424.296H355.442V440.28ZM365.242 435.924H371.434C372.73 435.924 373.702 435.636 374.35 435.06C374.998 434.484 375.322 433.548 375.322 432.252C375.322 431.004 374.998 430.104 374.35 429.552C373.702 428.976 372.73 428.688 371.434 428.688H365.242V435.924ZM359.59 424.296H373.45C374.602 424.296 375.634 424.488 376.546 424.872C377.482 425.232 378.274 425.736 378.922 426.384C379.594 427.032 380.098 427.788 380.434 428.652C380.794 429.492 380.974 430.404 380.974 431.388C380.974 432.9 380.65 434.208 380.002 435.312C379.378 436.416 378.346 437.256 376.906 437.832V437.904C377.602 438.096 378.178 438.396 378.634 438.804C379.09 439.188 379.462 439.656 379.75 440.208C380.038 440.736 380.242 441.324 380.362 441.972C380.506 442.62 380.602 443.268 380.65 443.916C380.674 444.324 380.698 444.804 380.722 445.356C380.746 445.908 380.782 446.472 380.83 447.048C380.902 447.624 380.998 448.176 381.118 448.704C381.262 449.208 381.466 449.64 381.73 450H376.078C375.766 449.184 375.574 448.212 375.502 447.084C375.43 445.956 375.322 444.876 375.178 443.844C374.986 442.5 374.578 441.516 373.954 440.892C373.33 440.268 372.31 439.956 370.894 439.956H365.242V450H359.59V424.296ZM384.85 424.296H404.074V429.048H390.502V434.556H402.958V438.948H390.502V445.248H404.362V450H384.85V424.296Z" fill="white"/>
<path opacity="0.2" d="M77.893 227.936C77.797 227.288 77.581 226.7 77.245 226.172C76.909 225.62 76.489 225.14 75.985 224.732C75.481 224.324 74.905 224.012 74.257 223.796C73.633 223.556 72.973 223.436 72.277 223.436C71.005 223.436 69.925 223.688 69.037 224.192C68.149 224.672 67.429 225.332 66.877 226.172C66.325 226.988 65.917 227.924 65.653 228.98C65.413 230.036 65.293 231.128 65.293 232.256C65.293 233.336 65.413 234.392 65.653 235.424C65.917 236.432 66.325 237.344 66.877 238.16C67.429 238.976 68.149 239.636 69.037 240.14C69.925 240.62 71.005 240.86 72.277 240.86C74.005 240.86 75.349 240.332 76.309 239.276C77.293 238.22 77.893 236.828 78.109 235.1H83.581C83.437 236.708 83.065 238.16 82.465 239.456C81.865 240.752 81.073 241.856 80.089 242.768C79.105 243.68 77.953 244.376 76.633 244.856C75.313 245.336 73.861 245.576 72.277 245.576C70.309 245.576 68.533 245.24 66.949 244.568C65.389 243.872 64.069 242.924 62.989 241.724C61.909 240.524 61.081 239.12 60.505 237.512C59.929 235.88 59.641 234.128 59.641 232.256C59.641 230.336 59.929 228.56 60.505 226.928C61.081 225.272 61.909 223.832 62.989 222.608C64.069 221.384 65.389 220.424 66.949 219.728C68.533 219.032 70.309 218.684 72.277 218.684C73.693 218.684 75.025 218.888 76.273 219.296C77.545 219.704 78.673 220.304 79.657 221.096C80.665 221.864 81.493 222.824 82.141 223.976C82.789 225.128 83.197 226.448 83.365 227.936H77.893ZM92.3726 230.924H98.5646C99.8606 230.924 100.833 230.636 101.481 230.06C102.129 229.484 102.453 228.548 102.453 227.252C102.453 226.004 102.129 225.104 101.481 224.552C100.833 223.976 99.8606 223.688 98.5646 223.688H92.3726V230.924ZM86.7206 219.296H100.581C101.733 219.296 102.765 219.488 103.677 219.872C104.613 220.232 105.405 220.736 106.053 221.384C106.725 222.032 107.229 222.788 107.565 223.652C107.925 224.492 108.105 225.404 108.105 226.388C108.105 227.9 107.781 229.208 107.133 230.312C106.509 231.416 105.477 232.256 104.037 232.832V232.904C104.733 233.096 105.309 233.396 105.765 233.804C106.221 234.188 106.593 234.656 106.881 235.208C107.169 235.736 107.373 236.324 107.493 236.972C107.637 237.62 107.733 238.268 107.781 238.916C107.805 239.324 107.829 239.804 107.853 240.356C107.877 240.908 107.913 241.472 107.961 242.048C108.033 242.624 108.129 243.176 108.249 243.704C108.393 244.208 108.597 244.64 108.861 245H103.209C102.897 244.184 102.705 243.212 102.633 242.084C102.561 240.956 102.453 239.876 102.309 238.844C102.117 237.5 101.709 236.516 101.085 235.892C100.461 235.268 99.4406 234.956 98.0246 234.956H92.3726V245H86.7206V219.296ZM118.461 235.064H125.121L121.881 225.632H121.809L118.461 235.064ZM119.001 219.296H124.797L134.409 245H128.541L126.597 239.276H116.985L114.969 245H109.281L119.001 219.296ZM135.906 219.296H153.978V224.048H141.558V229.988H152.322V234.38H141.558V245H135.906V219.296ZM162.213 224.048H154.509V219.296H175.569V224.048H167.865V245H162.213V224.048Z" fill="white"/>
<path opacity="0.2" d="M299.114 159.936C299.018 159.288 298.802 158.7 298.466 158.172C298.13 157.62 297.71 157.14 297.206 156.732C296.702 156.324 296.126 156.012 295.478 155.796C294.854 155.556 294.194 155.436 293.498 155.436C292.226 155.436 291.146 155.688 290.258 156.192C289.37 156.672 288.65 157.332 288.098 158.172C287.546 158.988 287.138 159.924 286.874 160.98C286.634 162.036 286.514 163.128 286.514 164.256C286.514 165.336 286.634 166.392 286.874 167.424C287.138 168.432 287.546 169.344 288.098 170.16C288.65 170.976 289.37 171.636 290.258 172.14C291.146 172.62 292.226 172.86 293.498 172.86C295.226 172.86 296.57 172.332 297.53 171.276C298.514 170.22 299.114 168.828 299.33 167.1H304.802C304.658 168.708 304.286 170.16 303.686 171.456C303.086 172.752 302.294 173.856 301.31 174.768C300.326 175.68 299.174 176.376 297.854 176.856C296.534 177.336 295.082 177.576 293.498 177.576C291.53 177.576 289.754 177.24 288.17 176.568C286.61 175.872 285.29 174.924 284.21 173.724C283.13 172.524 282.302 171.12 281.726 169.512C281.15 167.88 280.862 166.128 280.862 164.256C280.862 162.336 281.15 160.56 281.726 158.928C282.302 157.272 283.13 155.832 284.21 154.608C285.29 153.384 286.61 152.424 288.17 151.728C289.754 151.032 291.53 150.684 293.498 150.684C294.914 150.684 296.246 150.888 297.494 151.296C298.766 151.704 299.894 152.304 300.878 153.096C301.886 153.864 302.714 154.824 303.362 155.976C304.01 157.128 304.418 158.448 304.586 159.936H299.114ZM312.477 164.256C312.477 165.336 312.597 166.392 312.837 167.424C313.101 168.432 313.509 169.344 314.061 170.16C314.613 170.976 315.333 171.636 316.221 172.14C317.109 172.62 318.189 172.86 319.461 172.86C320.733 172.86 321.813 172.62 322.701 172.14C323.589 171.636 324.309 170.976 324.861 170.16C325.413 169.344 325.809 168.432 326.049 167.424C326.313 166.392 326.445 165.336 326.445 164.256C326.445 163.128 326.313 162.036 326.049 160.98C325.809 159.924 325.413 158.988 324.861 158.172C324.309 157.332 323.589 156.672 322.701 156.192C321.813 155.688 320.733 155.436 319.461 155.436C318.189 155.436 317.109 155.688 316.221 156.192C315.333 156.672 314.613 157.332 314.061 158.172C313.509 158.988 313.101 159.924 312.837 160.98C312.597 162.036 312.477 163.128 312.477 164.256ZM306.825 164.256C306.825 162.336 307.113 160.56 307.689 158.928C308.265 157.272 309.093 155.832 310.173 154.608C311.253 153.384 312.573 152.424 314.133 151.728C315.717 151.032 317.493 150.684 319.461 150.684C321.453 150.684 323.229 151.032 324.789 151.728C326.349 152.424 327.669 153.384 328.749 154.608C329.829 155.832 330.657 157.272 331.233 158.928C331.809 160.56 332.097 162.336 332.097 164.256C332.097 166.128 331.809 167.88 331.233 169.512C330.657 171.12 329.829 172.524 328.749 173.724C327.669 174.924 326.349 175.872 324.789 176.568C323.229 177.24 321.453 177.576 319.461 177.576C317.493 177.576 315.717 177.24 314.133 176.568C312.573 175.872 311.253 174.924 310.173 173.724C309.093 172.524 308.265 171.12 307.689 169.512C307.113 167.88 306.825 166.128 306.825 164.256ZM335.241 151.296H343.197L349.209 168.972H349.281L354.969 151.296H362.925V177H357.633V158.784H357.561L351.261 177H346.905L340.605 158.964H340.533V177H335.241V151.296ZM367.181 151.296H375.137L381.149 168.972H381.221L386.909 151.296H394.865V177H389.573V158.784H389.501L383.201 177H378.845L372.545 158.964H372.473V177H367.181V151.296ZM399.121 151.296H418.345V156.048H404.773V161.556H417.229V165.948H404.773V172.248H418.633V177H399.121V151.296ZM427.397 162.924H433.589C434.885 162.924 435.857 162.636 436.505 162.06C437.153 161.484 437.477 160.548 437.477 159.252C437.477 158.004 437.153 157.104 436.505 156.552C435.857 155.976 434.885 155.688 433.589 155.688H427.397V162.924ZM421.745 151.296H435.605C436.757 151.296 437.789 151.488 438.701 151.872C439.637 152.232 440.429 152.736 441.077 153.384C441.749 154.032 442.253 154.788 442.589 155.652C442.949 156.492 443.129 157.404 443.129 158.388C443.129 159.9 442.805 161.208 442.157 162.312C441.533 163.416 440.501 164.256 439.061 164.832V164.904C439.757 165.096 440.333 165.396 440.789 165.804C441.245 166.188 441.617 166.656 441.905 167.208C442.193 167.736 442.397 168.324 442.517 168.972C442.661 169.62 442.757 170.268 442.805 170.916C442.829 171.324 442.853 171.804 442.877 172.356C442.901 172.908 442.937 173.472 442.985 174.048C443.057 174.624 443.153 175.176 443.273 175.704C443.417 176.208 443.621 176.64 443.885 177H438.233C437.921 176.184 437.729 175.212 437.657 174.084C437.585 172.956 437.477 171.876 437.333 170.844C437.141 169.5 436.733 168.516 436.109 167.892C435.485 167.268 434.465 166.956 433.049 166.956H427.397V177H421.745V151.296ZM464.141 159.936C464.045 159.288 463.829 158.7 463.493 158.172C463.157 157.62 462.737 157.14 462.233 156.732C461.729 156.324 461.153 156.012 460.505 155.796C459.881 155.556 459.221 155.436 458.525 155.436C457.253 155.436 456.173 155.688 455.285 156.192C454.397 156.672 453.677 157.332 453.125 158.172C452.573 158.988 452.165 159.924 451.901 160.98C451.661 162.036 451.541 163.128 451.541 164.256C451.541 165.336 451.661 166.392 451.901 167.424C452.165 168.432 452.573 169.344 453.125 170.16C453.677 170.976 454.397 171.636 455.285 172.14C456.173 172.62 457.253 172.86 458.525 172.86C460.253 172.86 461.597 172.332 462.557 171.276C463.541 170.22 464.141 168.828 464.357 167.1H469.829C469.685 168.708 469.313 170.16 468.713 171.456C468.113 172.752 467.321 173.856 466.337 174.768C465.353 175.68 464.201 176.376 462.881 176.856C461.561 177.336 460.109 177.576 458.525 177.576C456.557 177.576 454.781 177.24 453.197 176.568C451.637 175.872 450.317 174.924 449.237 173.724C448.157 172.524 447.329 171.12 446.753 169.512C446.177 167.88 445.889 166.128 445.889 164.256C445.889 162.336 446.177 160.56 446.753 158.928C447.329 157.272 448.157 155.832 449.237 154.608C450.317 153.384 451.637 152.424 453.197 151.728C454.781 151.032 456.557 150.684 458.525 150.684C459.941 150.684 461.273 150.888 462.521 151.296C463.793 151.704 464.921 152.304 465.905 153.096C466.913 153.864 467.741 154.824 468.389 155.976C469.037 157.128 469.445 158.448 469.613 159.936H464.141ZM472.969 151.296H492.193V156.048H478.621V161.556H491.077V165.948H478.621V172.248H492.481V177H472.969V151.296Z" fill="white"/>
</svg>
