<svg width="790" height="328" viewBox="0 0 790 328" fill="none" xmlns="http://www.w3.org/2000/svg">
<path d="M393 288C393 289.105 393.895 290 395 290C396.105 290 397 289.105 397 288H393ZM397 288V188H393V288H397ZM371 162H140V166H371V162ZM118 140V40H114V140H118ZM140 162C127.85 162 118 152.15 118 140H114C114 154.359 125.641 166 140 166V162ZM397 188C397 173.641 385.359 162 371 162V166C383.15 166 393 175.85 393 188H397Z" fill="#697696"/>
<path d="M393 288C393 289.105 393.895 290 395 290C396.105 290 397 289.105 397 288H393ZM397 288V187H393V288H397ZM351 141V40H347V141H351ZM372 162C360.402 162 351 152.598 351 141H347C347 154.807 358.193 166 372 166V162ZM397 187C397 173.193 385.807 162 372 162V166C383.598 166 393 175.402 393 187H397Z" fill="#697696"/>
<path d="M393 288C393 289.105 393.895 290 395 290C396.105 290 397 289.105 397 288H393ZM397 288V188H393V288H397ZM419 166H511V162H419V166ZM537 140V40H533V140H537ZM511 166C525.359 166 537 154.359 537 140H533C533 152.15 523.15 162 511 162V166ZM397 188C397 175.85 406.85 166 419 166V162C404.641 162 393 173.641 393 188H397Z" fill="#697696"/>
<path d="M393 288C393 289.105 393.895 290 395 290C396.105 290 397 289.105 397 288H393ZM397 288V188H393V288H397ZM419 166H697V162H419V166ZM723 140V40H719V140H723ZM697 166C711.359 166 723 154.359 723 140H719C719 152.15 709.15 162 697 162V166ZM397 188C397 175.85 406.85 166 419 166V162C404.641 162 393 173.641 393 188H397Z" fill="#697696"/>
<path d="M23.5242 21.712C23.5242 25 22.6482 27.472 20.8962 29.128C19.1442 30.76 16.6482 31.576 13.4082 31.576C10.0962 31.576 7.50416 30.796 5.63216 29.236C3.78416 27.652 2.86016 25.144 2.86016 21.712V5.296H6.28016V21.712C6.28016 24.016 6.89216 25.768 8.11616 26.968C9.34016 28.144 11.1042 28.732 13.4082 28.732C15.5922 28.732 17.2482 28.144 18.3762 26.968C19.5282 25.768 20.1042 24.016 20.1042 21.712V5.296H23.5242V21.712ZM34.3486 17.788L25.8886 5.296H29.9926L36.4006 15.34L43.0966 5.296H46.9126L38.4166 17.788L47.4526 31H43.2766L36.3646 20.38L29.2366 31H25.4206L34.3486 17.788ZM58.744 5.296H70.84C73.288 5.296 75.196 5.896 76.564 7.096C77.956 8.296 78.652 9.94 78.652 12.028C78.652 13.588 78.292 14.956 77.572 16.132C76.876 17.308 75.748 18.112 74.188 18.544V18.616C74.932 18.76 75.532 19 75.988 19.336C76.468 19.672 76.84 20.08 77.104 20.56C77.392 21.016 77.596 21.532 77.716 22.108C77.86 22.684 77.968 23.284 78.04 23.908C78.088 24.532 78.124 25.168 78.148 25.816C78.172 26.464 78.232 27.1 78.328 27.724C78.424 28.348 78.556 28.948 78.724 29.524C78.916 30.076 79.192 30.568 79.552 31H75.736C75.496 30.736 75.328 30.376 75.232 29.92C75.16 29.464 75.112 28.96 75.088 28.408C75.064 27.832 75.04 27.22 75.016 26.572C74.992 25.924 74.92 25.288 74.8 24.664C74.704 24.04 74.584 23.452 74.44 22.9C74.296 22.324 74.068 21.832 73.756 21.424C73.444 20.992 73.036 20.656 72.532 20.416C72.028 20.152 71.356 20.02 70.516 20.02H62.164V31H58.744V5.296ZM69.292 17.14C70.084 17.14 70.84 17.08 71.56 16.96C72.28 16.84 72.904 16.612 73.432 16.276C73.984 15.916 74.416 15.448 74.728 14.872C75.064 14.272 75.232 13.504 75.232 12.568C75.232 11.272 74.872 10.216 74.152 9.4C73.432 8.584 72.268 8.176 70.66 8.176H62.164V17.14H69.292ZM95.0525 19.912C95.0045 19.192 94.8365 18.508 94.5485 17.86C94.2845 17.212 93.9125 16.66 93.4325 16.204C92.9765 15.724 92.4245 15.352 91.7765 15.088C91.1525 14.8 90.4565 14.656 89.6885 14.656C88.8965 14.656 88.1765 14.8 87.5285 15.088C86.9045 15.352 86.3645 15.724 85.9085 16.204C85.4525 16.684 85.0925 17.248 84.8285 17.896C84.5645 18.52 84.4085 19.192 84.3605 19.912H95.0525ZM98.0045 25.096C97.5965 27.184 96.6965 28.756 95.3045 29.812C93.9125 30.868 92.1605 31.396 90.0485 31.396C88.5605 31.396 87.2645 31.156 86.1605 30.676C85.0805 30.196 84.1685 29.524 83.4245 28.66C82.6805 27.796 82.1165 26.764 81.7325 25.564C81.3725 24.364 81.1685 23.056 81.1205 21.64C81.1205 20.224 81.3365 18.928 81.7685 17.752C82.2005 16.576 82.8005 15.556 83.5685 14.692C84.3605 13.828 85.2845 13.156 86.3405 12.676C87.4205 12.196 88.5965 11.956 89.8685 11.956C91.5245 11.956 92.8925 12.304 93.9725 13C95.0765 13.672 95.9525 14.536 96.6005 15.592C97.2725 16.648 97.7285 17.8 97.9685 19.048C98.2325 20.296 98.3405 21.484 98.2925 22.612H84.3605C84.3365 23.428 84.4325 24.208 84.6485 24.952C84.8645 25.672 85.2125 26.32 85.6925 26.896C86.1725 27.448 86.7845 27.892 87.5285 28.228C88.2725 28.564 89.1485 28.732 90.1565 28.732C91.4525 28.732 92.5085 28.432 93.3245 27.832C94.1645 27.232 94.7165 26.32 94.9805 25.096H98.0045ZM102.58 25.132C102.604 25.804 102.76 26.38 103.048 26.86C103.336 27.316 103.708 27.688 104.164 27.976C104.644 28.24 105.172 28.432 105.748 28.552C106.348 28.672 106.96 28.732 107.584 28.732C108.064 28.732 108.568 28.696 109.096 28.624C109.624 28.552 110.104 28.42 110.536 28.228C110.992 28.036 111.364 27.76 111.652 27.4C111.94 27.016 112.084 26.536 112.084 25.96C112.084 25.168 111.784 24.568 111.184 24.16C110.584 23.752 109.828 23.428 108.916 23.188C108.028 22.924 107.056 22.696 106 22.504C104.944 22.288 103.96 22 103.048 21.64C102.16 21.256 101.416 20.728 100.816 20.056C100.216 19.384 99.9164 18.448 99.9164 17.248C99.9164 16.312 100.12 15.508 100.528 14.836C100.96 14.164 101.5 13.624 102.148 13.216C102.82 12.784 103.564 12.472 104.38 12.28C105.22 12.064 106.048 11.956 106.864 11.956C107.92 11.956 108.892 12.052 109.78 12.244C110.668 12.412 111.448 12.724 112.12 13.18C112.816 13.612 113.368 14.212 113.776 14.98C114.184 15.724 114.424 16.66 114.496 17.788H111.436C111.388 17.188 111.232 16.696 110.968 16.312C110.704 15.904 110.368 15.58 109.96 15.34C109.552 15.1 109.096 14.932 108.592 14.836C108.112 14.716 107.62 14.656 107.116 14.656C106.66 14.656 106.192 14.692 105.712 14.764C105.256 14.836 104.836 14.968 104.452 15.16C104.068 15.328 103.756 15.568 103.516 15.88C103.276 16.168 103.156 16.552 103.156 17.032C103.156 17.56 103.336 18.004 103.696 18.364C104.08 18.7 104.56 18.988 105.136 19.228C105.712 19.444 106.36 19.636 107.08 19.804C107.8 19.948 108.52 20.104 109.24 20.272C110.008 20.44 110.752 20.644 111.472 20.884C112.216 21.124 112.864 21.448 113.416 21.856C113.992 22.24 114.448 22.732 114.784 23.332C115.144 23.932 115.324 24.676 115.324 25.564C115.324 26.692 115.084 27.628 114.604 28.372C114.148 29.116 113.536 29.716 112.768 30.172C112.024 30.628 111.172 30.94 110.212 31.108C109.276 31.3 108.34 31.396 107.404 31.396C106.372 31.396 105.388 31.288 104.452 31.072C103.516 30.856 102.688 30.508 101.968 30.028C101.248 29.524 100.672 28.876 100.24 28.084C99.8084 27.268 99.5684 26.284 99.5204 25.132H102.58ZM130.876 19.912C130.828 19.192 130.66 18.508 130.372 17.86C130.108 17.212 129.736 16.66 129.256 16.204C128.8 15.724 128.248 15.352 127.6 15.088C126.976 14.8 126.28 14.656 125.512 14.656C124.72 14.656 124 14.8 123.352 15.088C122.728 15.352 122.188 15.724 121.732 16.204C121.276 16.684 120.916 17.248 120.652 17.896C120.388 18.52 120.232 19.192 120.184 19.912H130.876ZM133.828 25.096C133.42 27.184 132.52 28.756 131.128 29.812C129.736 30.868 127.984 31.396 125.872 31.396C124.384 31.396 123.088 31.156 121.984 30.676C120.904 30.196 119.992 29.524 119.248 28.66C118.504 27.796 117.94 26.764 117.556 25.564C117.196 24.364 116.992 23.056 116.944 21.64C116.944 20.224 117.16 18.928 117.592 17.752C118.024 16.576 118.624 15.556 119.392 14.692C120.184 13.828 121.108 13.156 122.164 12.676C123.244 12.196 124.42 11.956 125.692 11.956C127.348 11.956 128.716 12.304 129.796 13C130.9 13.672 131.776 14.536 132.424 15.592C133.096 16.648 133.552 17.8 133.792 19.048C134.056 20.296 134.164 21.484 134.116 22.612H120.184C120.16 23.428 120.256 24.208 120.472 24.952C120.688 25.672 121.036 26.32 121.516 26.896C121.996 27.448 122.608 27.892 123.352 28.228C124.096 28.564 124.972 28.732 125.98 28.732C127.276 28.732 128.332 28.432 129.148 27.832C129.988 27.232 130.54 26.32 130.804 25.096H133.828ZM153.02 30.928C152.492 31.24 151.76 31.396 150.824 31.396C150.032 31.396 149.396 31.18 148.916 30.748C148.46 30.292 148.232 29.56 148.232 28.552C147.392 29.56 146.408 30.292 145.28 30.748C144.176 31.18 142.976 31.396 141.68 31.396C140.84 31.396 140.036 31.3 139.268 31.108C138.524 30.916 137.876 30.616 137.324 30.208C136.772 29.8 136.328 29.272 135.992 28.624C135.68 27.952 135.524 27.148 135.524 26.212C135.524 25.156 135.704 24.292 136.064 23.62C136.424 22.948 136.892 22.408 137.468 22C138.068 21.568 138.74 21.244 139.484 21.028C140.252 20.812 141.032 20.632 141.824 20.488C142.664 20.32 143.456 20.2 144.2 20.128C144.968 20.032 145.64 19.912 146.216 19.768C146.792 19.6 147.248 19.372 147.584 19.084C147.92 18.772 148.088 18.328 148.088 17.752C148.088 17.08 147.956 16.54 147.692 16.132C147.452 15.724 147.128 15.412 146.72 15.196C146.336 14.98 145.892 14.836 145.388 14.764C144.908 14.692 144.428 14.656 143.948 14.656C142.652 14.656 141.572 14.908 140.708 15.412C139.844 15.892 139.376 16.816 139.304 18.184H136.244C136.292 17.032 136.532 16.06 136.964 15.268C137.396 14.476 137.972 13.84 138.692 13.36C139.412 12.856 140.228 12.496 141.14 12.28C142.076 12.064 143.072 11.956 144.128 11.956C144.968 11.956 145.796 12.016 146.612 12.136C147.452 12.256 148.208 12.508 148.88 12.892C149.552 13.252 150.092 13.768 150.5 14.44C150.908 15.112 151.112 15.988 151.112 17.068V26.644C151.112 27.364 151.148 27.892 151.22 28.228C151.316 28.564 151.604 28.732 152.084 28.732C152.348 28.732 152.66 28.672 153.02 28.552V30.928ZM148.052 21.388C147.668 21.676 147.164 21.892 146.54 22.036C145.916 22.156 145.256 22.264 144.56 22.36C143.888 22.432 143.204 22.528 142.508 22.648C141.812 22.744 141.188 22.912 140.636 23.152C140.084 23.392 139.628 23.74 139.268 24.196C138.932 24.628 138.764 25.228 138.764 25.996C138.764 26.5 138.86 26.932 139.052 27.292C139.268 27.628 139.532 27.904 139.844 28.12C140.18 28.336 140.564 28.492 140.996 28.588C141.428 28.684 141.884 28.732 142.364 28.732C143.372 28.732 144.236 28.6 144.956 28.336C145.676 28.048 146.264 27.7 146.72 27.292C147.176 26.86 147.512 26.404 147.728 25.924C147.944 25.42 148.052 24.952 148.052 24.52V21.388ZM155.004 12.388H157.884V16.312H157.956C158.7 14.8 159.612 13.684 160.692 12.964C161.772 12.244 163.14 11.908 164.796 11.956V15.196C163.572 15.196 162.528 15.364 161.664 15.7C160.8 16.036 160.104 16.528 159.576 17.176C159.048 17.824 158.664 18.616 158.424 19.552C158.184 20.464 158.064 21.52 158.064 22.72V31H155.004V12.388ZM178.348 18.364C178.108 17.188 177.604 16.276 176.836 15.628C176.068 14.98 175.036 14.656 173.74 14.656C172.636 14.656 171.712 14.86 170.968 15.268C170.224 15.676 169.624 16.216 169.168 16.888C168.736 17.56 168.424 18.34 168.232 19.228C168.04 20.092 167.944 20.992 167.944 21.928C167.944 22.792 168.04 23.632 168.232 24.448C168.448 25.264 168.772 25.996 169.204 26.644C169.636 27.268 170.2 27.772 170.896 28.156C171.592 28.54 172.42 28.732 173.38 28.732C174.892 28.732 176.068 28.336 176.908 27.544C177.772 26.752 178.3 25.636 178.492 24.196H181.624C181.288 26.5 180.424 28.276 179.032 29.524C177.664 30.772 175.792 31.396 173.416 31.396C172 31.396 170.74 31.168 169.636 30.712C168.556 30.256 167.644 29.608 166.9 28.768C166.18 27.928 165.628 26.932 165.244 25.78C164.884 24.604 164.704 23.32 164.704 21.928C164.704 20.536 164.884 19.24 165.244 18.04C165.604 16.816 166.144 15.76 166.864 14.872C167.608 13.96 168.532 13.252 169.636 12.748C170.74 12.22 172.024 11.956 173.488 11.956C174.544 11.956 175.528 12.088 176.44 12.352C177.376 12.592 178.192 12.976 178.888 13.504C179.608 14.032 180.196 14.704 180.652 15.52C181.108 16.312 181.396 17.26 181.516 18.364H178.348ZM184.292 5.296H187.352V15.124H187.424C187.664 14.548 188 14.068 188.432 13.684C188.864 13.276 189.344 12.952 189.872 12.712C190.424 12.448 190.988 12.256 191.564 12.136C192.164 12.016 192.74 11.956 193.292 11.956C194.516 11.956 195.536 12.124 196.352 12.46C197.168 12.796 197.828 13.264 198.332 13.864C198.836 14.464 199.184 15.184 199.376 16.024C199.592 16.84 199.7 17.752 199.7 18.76V31H196.64V18.4C196.64 17.248 196.304 16.336 195.632 15.664C194.96 14.992 194.036 14.656 192.86 14.656C191.924 14.656 191.108 14.8 190.412 15.088C189.74 15.376 189.176 15.784 188.72 16.312C188.264 16.84 187.916 17.464 187.676 18.184C187.46 18.88 187.352 19.648 187.352 20.488V31H184.292V5.296ZM216.464 19.912C216.416 19.192 216.248 18.508 215.96 17.86C215.696 17.212 215.324 16.66 214.844 16.204C214.388 15.724 213.836 15.352 213.188 15.088C212.564 14.8 211.868 14.656 211.1 14.656C210.308 14.656 209.588 14.8 208.94 15.088C208.316 15.352 207.776 15.724 207.32 16.204C206.864 16.684 206.504 17.248 206.24 17.896C205.976 18.52 205.82 19.192 205.772 19.912H216.464ZM219.416 25.096C219.008 27.184 218.108 28.756 216.716 29.812C215.324 30.868 213.572 31.396 211.46 31.396C209.972 31.396 208.676 31.156 207.572 30.676C206.492 30.196 205.58 29.524 204.836 28.66C204.092 27.796 203.528 26.764 203.144 25.564C202.784 24.364 202.58 23.056 202.532 21.64C202.532 20.224 202.748 18.928 203.18 17.752C203.612 16.576 204.212 15.556 204.98 14.692C205.772 13.828 206.696 13.156 207.752 12.676C208.832 12.196 210.008 11.956 211.28 11.956C212.936 11.956 214.304 12.304 215.384 13C216.488 13.672 217.364 14.536 218.012 15.592C218.684 16.648 219.14 17.8 219.38 19.048C219.644 20.296 219.752 21.484 219.704 22.612H205.772C205.748 23.428 205.844 24.208 206.06 24.952C206.276 25.672 206.624 26.32 207.104 26.896C207.584 27.448 208.196 27.892 208.94 28.228C209.684 28.564 210.56 28.732 211.568 28.732C212.864 28.732 213.92 28.432 214.736 27.832C215.576 27.232 216.128 26.32 216.392 25.096H219.416ZM222.012 12.388H224.892V16.312H224.964C225.708 14.8 226.62 13.684 227.7 12.964C228.78 12.244 230.148 11.908 231.804 11.956V15.196C230.58 15.196 229.536 15.364 228.672 15.7C227.808 16.036 227.112 16.528 226.584 17.176C226.056 17.824 225.672 18.616 225.432 19.552C225.192 20.464 225.072 21.52 225.072 22.72V31H222.012V12.388Z" fill="#1E1E1E"/>
<path d="M286.542 28.12H292.23C292.614 28.12 293.094 28.096 293.67 28.048C294.246 27.976 294.858 27.832 295.506 27.616C296.154 27.376 296.79 27.04 297.414 26.608C298.062 26.176 298.638 25.588 299.142 24.844C299.646 24.1 300.054 23.176 300.366 22.072C300.702 20.944 300.87 19.588 300.87 18.004C300.87 16.468 300.714 15.1 300.402 13.9C300.114 12.676 299.622 11.644 298.926 10.804C298.254 9.94 297.378 9.292 296.298 8.86C295.218 8.404 293.886 8.176 292.302 8.176H286.542V28.12ZM283.122 5.296H291.942C295.902 5.296 298.95 6.304 301.086 8.32C303.222 10.336 304.29 13.408 304.29 17.536C304.29 19.696 304.05 21.616 303.57 23.296C303.09 24.952 302.346 26.356 301.338 27.508C300.33 28.636 299.046 29.5 297.486 30.1C295.926 30.7 294.078 31 291.942 31H283.122V5.296ZM320.134 19.912C320.086 19.192 319.918 18.508 319.63 17.86C319.366 17.212 318.994 16.66 318.514 16.204C318.058 15.724 317.506 15.352 316.858 15.088C316.234 14.8 315.538 14.656 314.77 14.656C313.978 14.656 313.258 14.8 312.61 15.088C311.986 15.352 311.446 15.724 310.99 16.204C310.534 16.684 310.174 17.248 309.91 17.896C309.646 18.52 309.49 19.192 309.442 19.912H320.134ZM323.086 25.096C322.678 27.184 321.778 28.756 320.386 29.812C318.994 30.868 317.242 31.396 315.13 31.396C313.642 31.396 312.346 31.156 311.242 30.676C310.162 30.196 309.25 29.524 308.506 28.66C307.762 27.796 307.198 26.764 306.814 25.564C306.454 24.364 306.25 23.056 306.202 21.64C306.202 20.224 306.418 18.928 306.85 17.752C307.282 16.576 307.882 15.556 308.65 14.692C309.442 13.828 310.366 13.156 311.422 12.676C312.502 12.196 313.678 11.956 314.95 11.956C316.606 11.956 317.974 12.304 319.054 13C320.158 13.672 321.034 14.536 321.682 15.592C322.354 16.648 322.81 17.8 323.05 19.048C323.314 20.296 323.422 21.484 323.374 22.612H309.442C309.418 23.428 309.514 24.208 309.73 24.952C309.946 25.672 310.294 26.32 310.774 26.896C311.254 27.448 311.866 27.892 312.61 28.228C313.354 28.564 314.23 28.732 315.238 28.732C316.534 28.732 317.59 28.432 318.406 27.832C319.246 27.232 319.798 26.32 320.062 25.096H323.086ZM327.662 25.132C327.686 25.804 327.842 26.38 328.13 26.86C328.418 27.316 328.79 27.688 329.246 27.976C329.726 28.24 330.254 28.432 330.83 28.552C331.43 28.672 332.042 28.732 332.666 28.732C333.146 28.732 333.65 28.696 334.178 28.624C334.706 28.552 335.186 28.42 335.618 28.228C336.074 28.036 336.446 27.76 336.734 27.4C337.022 27.016 337.166 26.536 337.166 25.96C337.166 25.168 336.866 24.568 336.266 24.16C335.666 23.752 334.91 23.428 333.998 23.188C333.11 22.924 332.138 22.696 331.082 22.504C330.026 22.288 329.042 22 328.13 21.64C327.242 21.256 326.498 20.728 325.898 20.056C325.298 19.384 324.998 18.448 324.998 17.248C324.998 16.312 325.202 15.508 325.61 14.836C326.042 14.164 326.582 13.624 327.23 13.216C327.902 12.784 328.646 12.472 329.462 12.28C330.302 12.064 331.13 11.956 331.946 11.956C333.002 11.956 333.974 12.052 334.862 12.244C335.75 12.412 336.53 12.724 337.202 13.18C337.898 13.612 338.45 14.212 338.858 14.98C339.266 15.724 339.506 16.66 339.578 17.788H336.518C336.47 17.188 336.314 16.696 336.05 16.312C335.786 15.904 335.45 15.58 335.042 15.34C334.634 15.1 334.178 14.932 333.674 14.836C333.194 14.716 332.702 14.656 332.198 14.656C331.742 14.656 331.274 14.692 330.794 14.764C330.338 14.836 329.918 14.968 329.534 15.16C329.15 15.328 328.838 15.568 328.598 15.88C328.358 16.168 328.238 16.552 328.238 17.032C328.238 17.56 328.418 18.004 328.778 18.364C329.162 18.7 329.642 18.988 330.218 19.228C330.794 19.444 331.442 19.636 332.162 19.804C332.882 19.948 333.602 20.104 334.322 20.272C335.09 20.44 335.834 20.644 336.554 20.884C337.298 21.124 337.946 21.448 338.498 21.856C339.074 22.24 339.53 22.732 339.866 23.332C340.226 23.932 340.406 24.676 340.406 25.564C340.406 26.692 340.166 27.628 339.686 28.372C339.23 29.116 338.618 29.716 337.85 30.172C337.106 30.628 336.254 30.94 335.294 31.108C334.358 31.3 333.422 31.396 332.486 31.396C331.454 31.396 330.47 31.288 329.534 31.072C328.598 30.856 327.77 30.508 327.05 30.028C326.33 29.524 325.754 28.876 325.322 28.084C324.89 27.268 324.65 26.284 324.602 25.132H327.662ZM346.274 9.04H343.214V5.296H346.274V9.04ZM343.214 12.388H346.274V31H343.214V12.388ZM366.314 29.416C366.314 32.464 365.618 34.744 364.226 36.256C362.834 37.768 360.65 38.524 357.674 38.524C356.81 38.524 355.922 38.428 355.01 38.236C354.122 38.044 353.306 37.732 352.562 37.3C351.842 36.868 351.242 36.304 350.762 35.608C350.282 34.912 350.018 34.06 349.97 33.052H353.03C353.054 33.604 353.222 34.072 353.534 34.456C353.87 34.84 354.266 35.152 354.722 35.392C355.202 35.632 355.718 35.8 356.27 35.896C356.822 36.016 357.35 36.076 357.854 36.076C358.862 36.076 359.714 35.896 360.41 35.536C361.106 35.2 361.682 34.72 362.138 34.096C362.594 33.496 362.918 32.764 363.11 31.9C363.326 31.036 363.434 30.088 363.434 29.056V27.832H363.362C362.834 28.984 362.03 29.836 360.95 30.388C359.894 30.916 358.766 31.18 357.566 31.18C356.174 31.18 354.962 30.928 353.93 30.424C352.898 29.92 352.034 29.248 351.338 28.408C350.642 27.544 350.114 26.548 349.754 25.42C349.418 24.268 349.25 23.056 349.25 21.784C349.25 20.68 349.394 19.552 349.682 18.4C349.97 17.224 350.45 16.168 351.122 15.232C351.794 14.272 352.682 13.492 353.786 12.892C354.89 12.268 356.246 11.956 357.854 11.956C359.03 11.956 360.11 12.22 361.094 12.748C362.078 13.252 362.846 14.02 363.398 15.052H363.434V12.388H366.314V29.416ZM357.746 28.516C358.754 28.516 359.606 28.312 360.302 27.904C361.022 27.472 361.598 26.92 362.03 26.248C362.462 25.552 362.774 24.772 362.966 23.908C363.182 23.044 363.29 22.18 363.29 21.316C363.29 20.5 363.194 19.696 363.002 18.904C362.81 18.112 362.498 17.404 362.066 16.78C361.658 16.132 361.118 15.616 360.446 15.232C359.774 14.848 358.958 14.656 357.998 14.656C357.014 14.656 356.174 14.848 355.478 15.232C354.782 15.592 354.206 16.084 353.75 16.708C353.318 17.332 352.994 18.052 352.778 18.868C352.586 19.684 352.49 20.536 352.49 21.424C352.49 22.264 352.574 23.104 352.742 23.944C352.91 24.784 353.198 25.552 353.606 26.248C354.014 26.92 354.554 27.472 355.226 27.904C355.898 28.312 356.738 28.516 357.746 28.516ZM370.174 12.388H373.054V15.34H373.126C374.398 13.084 376.414 11.956 379.174 11.956C380.398 11.956 381.418 12.124 382.234 12.46C383.05 12.796 383.71 13.264 384.214 13.864C384.718 14.464 385.066 15.184 385.258 16.024C385.474 16.84 385.582 17.752 385.582 18.76V31H382.522V18.4C382.522 17.248 382.186 16.336 381.514 15.664C380.842 14.992 379.918 14.656 378.742 14.656C377.806 14.656 376.99 14.8 376.294 15.088C375.622 15.376 375.058 15.784 374.602 16.312C374.146 16.84 373.798 17.464 373.558 18.184C373.342 18.88 373.234 19.648 373.234 20.488V31H370.174V12.388ZM402.346 19.912C402.298 19.192 402.13 18.508 401.842 17.86C401.578 17.212 401.206 16.66 400.726 16.204C400.27 15.724 399.718 15.352 399.07 15.088C398.446 14.8 397.75 14.656 396.982 14.656C396.19 14.656 395.47 14.8 394.822 15.088C394.198 15.352 393.658 15.724 393.202 16.204C392.746 16.684 392.386 17.248 392.122 17.896C391.858 18.52 391.702 19.192 391.654 19.912H402.346ZM405.298 25.096C404.89 27.184 403.99 28.756 402.598 29.812C401.206 30.868 399.454 31.396 397.342 31.396C395.854 31.396 394.558 31.156 393.454 30.676C392.374 30.196 391.462 29.524 390.718 28.66C389.974 27.796 389.41 26.764 389.026 25.564C388.666 24.364 388.462 23.056 388.414 21.64C388.414 20.224 388.63 18.928 389.062 17.752C389.494 16.576 390.094 15.556 390.862 14.692C391.654 13.828 392.578 13.156 393.634 12.676C394.714 12.196 395.89 11.956 397.162 11.956C398.818 11.956 400.186 12.304 401.266 13C402.37 13.672 403.246 14.536 403.894 15.592C404.566 16.648 405.022 17.8 405.262 19.048C405.526 20.296 405.634 21.484 405.586 22.612H391.654C391.63 23.428 391.726 24.208 391.942 24.952C392.158 25.672 392.506 26.32 392.986 26.896C393.466 27.448 394.078 27.892 394.822 28.228C395.566 28.564 396.442 28.732 397.45 28.732C398.746 28.732 399.802 28.432 400.618 27.832C401.458 27.232 402.01 26.32 402.274 25.096H405.298ZM407.894 12.388H410.774V16.312H410.846C411.59 14.8 412.502 13.684 413.582 12.964C414.662 12.244 416.03 11.908 417.686 11.956V15.196C416.462 15.196 415.418 15.364 414.554 15.7C413.69 16.036 412.994 16.528 412.466 17.176C411.938 17.824 411.554 18.616 411.314 19.552C411.074 20.464 410.954 21.52 410.954 22.72V31H407.894V12.388Z" fill="#1E1E1E"/>
<path d="M472.542 28.12H478.23C478.614 28.12 479.094 28.096 479.67 28.048C480.246 27.976 480.858 27.832 481.506 27.616C482.154 27.376 482.79 27.04 483.414 26.608C484.062 26.176 484.638 25.588 485.142 24.844C485.646 24.1 486.054 23.176 486.366 22.072C486.702 20.944 486.87 19.588 486.87 18.004C486.87 16.468 486.714 15.1 486.402 13.9C486.114 12.676 485.622 11.644 484.926 10.804C484.254 9.94 483.378 9.292 482.298 8.86C481.218 8.404 479.886 8.176 478.302 8.176H472.542V28.12ZM469.122 5.296H477.942C481.902 5.296 484.95 6.304 487.086 8.32C489.222 10.336 490.29 13.408 490.29 17.536C490.29 19.696 490.05 21.616 489.57 23.296C489.09 24.952 488.346 26.356 487.338 27.508C486.33 28.636 485.046 29.5 483.486 30.1C481.926 30.7 480.078 31 477.942 31H469.122V5.296ZM506.134 19.912C506.086 19.192 505.918 18.508 505.63 17.86C505.366 17.212 504.994 16.66 504.514 16.204C504.058 15.724 503.506 15.352 502.858 15.088C502.234 14.8 501.538 14.656 500.77 14.656C499.978 14.656 499.258 14.8 498.61 15.088C497.986 15.352 497.446 15.724 496.99 16.204C496.534 16.684 496.174 17.248 495.91 17.896C495.646 18.52 495.49 19.192 495.442 19.912H506.134ZM509.086 25.096C508.678 27.184 507.778 28.756 506.386 29.812C504.994 30.868 503.242 31.396 501.13 31.396C499.642 31.396 498.346 31.156 497.242 30.676C496.162 30.196 495.25 29.524 494.506 28.66C493.762 27.796 493.198 26.764 492.814 25.564C492.454 24.364 492.25 23.056 492.202 21.64C492.202 20.224 492.418 18.928 492.85 17.752C493.282 16.576 493.882 15.556 494.65 14.692C495.442 13.828 496.366 13.156 497.422 12.676C498.502 12.196 499.678 11.956 500.95 11.956C502.606 11.956 503.974 12.304 505.054 13C506.158 13.672 507.034 14.536 507.682 15.592C508.354 16.648 508.81 17.8 509.05 19.048C509.314 20.296 509.422 21.484 509.374 22.612H495.442C495.418 23.428 495.514 24.208 495.73 24.952C495.946 25.672 496.294 26.32 496.774 26.896C497.254 27.448 497.866 27.892 498.61 28.228C499.354 28.564 500.23 28.732 501.238 28.732C502.534 28.732 503.59 28.432 504.406 27.832C505.246 27.232 505.798 26.32 506.062 25.096H509.086ZM513.662 25.132C513.686 25.804 513.842 26.38 514.13 26.86C514.418 27.316 514.79 27.688 515.246 27.976C515.726 28.24 516.254 28.432 516.83 28.552C517.43 28.672 518.042 28.732 518.666 28.732C519.146 28.732 519.65 28.696 520.178 28.624C520.706 28.552 521.186 28.42 521.618 28.228C522.074 28.036 522.446 27.76 522.734 27.4C523.022 27.016 523.166 26.536 523.166 25.96C523.166 25.168 522.866 24.568 522.266 24.16C521.666 23.752 520.91 23.428 519.998 23.188C519.11 22.924 518.138 22.696 517.082 22.504C516.026 22.288 515.042 22 514.13 21.64C513.242 21.256 512.498 20.728 511.898 20.056C511.298 19.384 510.998 18.448 510.998 17.248C510.998 16.312 511.202 15.508 511.61 14.836C512.042 14.164 512.582 13.624 513.23 13.216C513.902 12.784 514.646 12.472 515.462 12.28C516.302 12.064 517.13 11.956 517.946 11.956C519.002 11.956 519.974 12.052 520.862 12.244C521.75 12.412 522.53 12.724 523.202 13.18C523.898 13.612 524.45 14.212 524.858 14.98C525.266 15.724 525.506 16.66 525.578 17.788H522.518C522.47 17.188 522.314 16.696 522.05 16.312C521.786 15.904 521.45 15.58 521.042 15.34C520.634 15.1 520.178 14.932 519.674 14.836C519.194 14.716 518.702 14.656 518.198 14.656C517.742 14.656 517.274 14.692 516.794 14.764C516.338 14.836 515.918 14.968 515.534 15.16C515.15 15.328 514.838 15.568 514.598 15.88C514.358 16.168 514.238 16.552 514.238 17.032C514.238 17.56 514.418 18.004 514.778 18.364C515.162 18.7 515.642 18.988 516.218 19.228C516.794 19.444 517.442 19.636 518.162 19.804C518.882 19.948 519.602 20.104 520.322 20.272C521.09 20.44 521.834 20.644 522.554 20.884C523.298 21.124 523.946 21.448 524.498 21.856C525.074 22.24 525.53 22.732 525.866 23.332C526.226 23.932 526.406 24.676 526.406 25.564C526.406 26.692 526.166 27.628 525.686 28.372C525.23 29.116 524.618 29.716 523.85 30.172C523.106 30.628 522.254 30.94 521.294 31.108C520.358 31.3 519.422 31.396 518.486 31.396C517.454 31.396 516.47 31.288 515.534 31.072C514.598 30.856 513.77 30.508 513.05 30.028C512.33 29.524 511.754 28.876 511.322 28.084C510.89 27.268 510.65 26.284 510.602 25.132H513.662ZM532.274 9.04H529.214V5.296H532.274V9.04ZM529.214 12.388H532.274V31H529.214V12.388ZM552.314 29.416C552.314 32.464 551.618 34.744 550.226 36.256C548.834 37.768 546.65 38.524 543.674 38.524C542.81 38.524 541.922 38.428 541.01 38.236C540.122 38.044 539.306 37.732 538.562 37.3C537.842 36.868 537.242 36.304 536.762 35.608C536.282 34.912 536.018 34.06 535.97 33.052H539.03C539.054 33.604 539.222 34.072 539.534 34.456C539.87 34.84 540.266 35.152 540.722 35.392C541.202 35.632 541.718 35.8 542.27 35.896C542.822 36.016 543.35 36.076 543.854 36.076C544.862 36.076 545.714 35.896 546.41 35.536C547.106 35.2 547.682 34.72 548.138 34.096C548.594 33.496 548.918 32.764 549.11 31.9C549.326 31.036 549.434 30.088 549.434 29.056V27.832H549.362C548.834 28.984 548.03 29.836 546.95 30.388C545.894 30.916 544.766 31.18 543.566 31.18C542.174 31.18 540.962 30.928 539.93 30.424C538.898 29.92 538.034 29.248 537.338 28.408C536.642 27.544 536.114 26.548 535.754 25.42C535.418 24.268 535.25 23.056 535.25 21.784C535.25 20.68 535.394 19.552 535.682 18.4C535.97 17.224 536.45 16.168 537.122 15.232C537.794 14.272 538.682 13.492 539.786 12.892C540.89 12.268 542.246 11.956 543.854 11.956C545.03 11.956 546.11 12.22 547.094 12.748C548.078 13.252 548.846 14.02 549.398 15.052H549.434V12.388H552.314V29.416ZM543.746 28.516C544.754 28.516 545.606 28.312 546.302 27.904C547.022 27.472 547.598 26.92 548.03 26.248C548.462 25.552 548.774 24.772 548.966 23.908C549.182 23.044 549.29 22.18 549.29 21.316C549.29 20.5 549.194 19.696 549.002 18.904C548.81 18.112 548.498 17.404 548.066 16.78C547.658 16.132 547.118 15.616 546.446 15.232C545.774 14.848 544.958 14.656 543.998 14.656C543.014 14.656 542.174 14.848 541.478 15.232C540.782 15.592 540.206 16.084 539.75 16.708C539.318 17.332 538.994 18.052 538.778 18.868C538.586 19.684 538.49 20.536 538.49 21.424C538.49 22.264 538.574 23.104 538.742 23.944C538.91 24.784 539.198 25.552 539.606 26.248C540.014 26.92 540.554 27.472 541.226 27.904C541.898 28.312 542.738 28.516 543.746 28.516ZM556.174 12.388H559.054V15.34H559.126C560.398 13.084 562.414 11.956 565.174 11.956C566.398 11.956 567.418 12.124 568.234 12.46C569.05 12.796 569.71 13.264 570.214 13.864C570.718 14.464 571.066 15.184 571.258 16.024C571.474 16.84 571.582 17.752 571.582 18.76V31H568.522V18.4C568.522 17.248 568.186 16.336 567.514 15.664C566.842 14.992 565.918 14.656 564.742 14.656C563.806 14.656 562.99 14.8 562.294 15.088C561.622 15.376 561.058 15.784 560.602 16.312C560.146 16.84 559.798 17.464 559.558 18.184C559.342 18.88 559.234 19.648 559.234 20.488V31H556.174V12.388ZM588.346 19.912C588.298 19.192 588.13 18.508 587.842 17.86C587.578 17.212 587.206 16.66 586.726 16.204C586.27 15.724 585.718 15.352 585.07 15.088C584.446 14.8 583.75 14.656 582.982 14.656C582.19 14.656 581.47 14.8 580.822 15.088C580.198 15.352 579.658 15.724 579.202 16.204C578.746 16.684 578.386 17.248 578.122 17.896C577.858 18.52 577.702 19.192 577.654 19.912H588.346ZM591.298 25.096C590.89 27.184 589.99 28.756 588.598 29.812C587.206 30.868 585.454 31.396 583.342 31.396C581.854 31.396 580.558 31.156 579.454 30.676C578.374 30.196 577.462 29.524 576.718 28.66C575.974 27.796 575.41 26.764 575.026 25.564C574.666 24.364 574.462 23.056 574.414 21.64C574.414 20.224 574.63 18.928 575.062 17.752C575.494 16.576 576.094 15.556 576.862 14.692C577.654 13.828 578.578 13.156 579.634 12.676C580.714 12.196 581.89 11.956 583.162 11.956C584.818 11.956 586.186 12.304 587.266 13C588.37 13.672 589.246 14.536 589.894 15.592C590.566 16.648 591.022 17.8 591.262 19.048C591.526 20.296 591.634 21.484 591.586 22.612H577.654C577.63 23.428 577.726 24.208 577.942 24.952C578.158 25.672 578.506 26.32 578.986 26.896C579.466 27.448 580.078 27.892 580.822 28.228C581.566 28.564 582.442 28.732 583.45 28.732C584.746 28.732 585.802 28.432 586.618 27.832C587.458 27.232 588.01 26.32 588.274 25.096H591.298ZM593.894 12.388H596.774V16.312H596.846C597.59 14.8 598.502 13.684 599.582 12.964C600.662 12.244 602.03 11.908 603.686 11.956V15.196C602.462 15.196 601.418 15.364 600.554 15.7C599.69 16.036 598.994 16.528 598.466 17.176C597.938 17.824 597.554 18.616 597.314 19.552C597.074 20.464 596.954 21.52 596.954 22.72V31H593.894V12.388Z" fill="#1E1E1E"/>
<path d="M658.542 28.12H664.23C664.614 28.12 665.094 28.096 665.67 28.048C666.246 27.976 666.858 27.832 667.506 27.616C668.154 27.376 668.79 27.04 669.414 26.608C670.062 26.176 670.638 25.588 671.142 24.844C671.646 24.1 672.054 23.176 672.366 22.072C672.702 20.944 672.87 19.588 672.87 18.004C672.87 16.468 672.714 15.1 672.402 13.9C672.114 12.676 671.622 11.644 670.926 10.804C670.254 9.94 669.378 9.292 668.298 8.86C667.218 8.404 665.886 8.176 664.302 8.176H658.542V28.12ZM655.122 5.296H663.942C667.902 5.296 670.95 6.304 673.086 8.32C675.222 10.336 676.29 13.408 676.29 17.536C676.29 19.696 676.05 21.616 675.57 23.296C675.09 24.952 674.346 26.356 673.338 27.508C672.33 28.636 671.046 29.5 669.486 30.1C667.926 30.7 666.078 31 663.942 31H655.122V5.296ZM692.134 19.912C692.086 19.192 691.918 18.508 691.63 17.86C691.366 17.212 690.994 16.66 690.514 16.204C690.058 15.724 689.506 15.352 688.858 15.088C688.234 14.8 687.538 14.656 686.77 14.656C685.978 14.656 685.258 14.8 684.61 15.088C683.986 15.352 683.446 15.724 682.99 16.204C682.534 16.684 682.174 17.248 681.91 17.896C681.646 18.52 681.49 19.192 681.442 19.912H692.134ZM695.086 25.096C694.678 27.184 693.778 28.756 692.386 29.812C690.994 30.868 689.242 31.396 687.13 31.396C685.642 31.396 684.346 31.156 683.242 30.676C682.162 30.196 681.25 29.524 680.506 28.66C679.762 27.796 679.198 26.764 678.814 25.564C678.454 24.364 678.25 23.056 678.202 21.64C678.202 20.224 678.418 18.928 678.85 17.752C679.282 16.576 679.882 15.556 680.65 14.692C681.442 13.828 682.366 13.156 683.422 12.676C684.502 12.196 685.678 11.956 686.95 11.956C688.606 11.956 689.974 12.304 691.054 13C692.158 13.672 693.034 14.536 693.682 15.592C694.354 16.648 694.81 17.8 695.05 19.048C695.314 20.296 695.422 21.484 695.374 22.612H681.442C681.418 23.428 681.514 24.208 681.73 24.952C681.946 25.672 682.294 26.32 682.774 26.896C683.254 27.448 683.866 27.892 684.61 28.228C685.354 28.564 686.23 28.732 687.238 28.732C688.534 28.732 689.59 28.432 690.406 27.832C691.246 27.232 691.798 26.32 692.062 25.096H695.086ZM699.662 25.132C699.686 25.804 699.842 26.38 700.13 26.86C700.418 27.316 700.79 27.688 701.246 27.976C701.726 28.24 702.254 28.432 702.83 28.552C703.43 28.672 704.042 28.732 704.666 28.732C705.146 28.732 705.65 28.696 706.178 28.624C706.706 28.552 707.186 28.42 707.618 28.228C708.074 28.036 708.446 27.76 708.734 27.4C709.022 27.016 709.166 26.536 709.166 25.96C709.166 25.168 708.866 24.568 708.266 24.16C707.666 23.752 706.91 23.428 705.998 23.188C705.11 22.924 704.138 22.696 703.082 22.504C702.026 22.288 701.042 22 700.13 21.64C699.242 21.256 698.498 20.728 697.898 20.056C697.298 19.384 696.998 18.448 696.998 17.248C696.998 16.312 697.202 15.508 697.61 14.836C698.042 14.164 698.582 13.624 699.23 13.216C699.902 12.784 700.646 12.472 701.462 12.28C702.302 12.064 703.13 11.956 703.946 11.956C705.002 11.956 705.974 12.052 706.862 12.244C707.75 12.412 708.53 12.724 709.202 13.18C709.898 13.612 710.45 14.212 710.858 14.98C711.266 15.724 711.506 16.66 711.578 17.788H708.518C708.47 17.188 708.314 16.696 708.05 16.312C707.786 15.904 707.45 15.58 707.042 15.34C706.634 15.1 706.178 14.932 705.674 14.836C705.194 14.716 704.702 14.656 704.198 14.656C703.742 14.656 703.274 14.692 702.794 14.764C702.338 14.836 701.918 14.968 701.534 15.16C701.15 15.328 700.838 15.568 700.598 15.88C700.358 16.168 700.238 16.552 700.238 17.032C700.238 17.56 700.418 18.004 700.778 18.364C701.162 18.7 701.642 18.988 702.218 19.228C702.794 19.444 703.442 19.636 704.162 19.804C704.882 19.948 705.602 20.104 706.322 20.272C707.09 20.44 707.834 20.644 708.554 20.884C709.298 21.124 709.946 21.448 710.498 21.856C711.074 22.24 711.53 22.732 711.866 23.332C712.226 23.932 712.406 24.676 712.406 25.564C712.406 26.692 712.166 27.628 711.686 28.372C711.23 29.116 710.618 29.716 709.85 30.172C709.106 30.628 708.254 30.94 707.294 31.108C706.358 31.3 705.422 31.396 704.486 31.396C703.454 31.396 702.47 31.288 701.534 31.072C700.598 30.856 699.77 30.508 699.05 30.028C698.33 29.524 697.754 28.876 697.322 28.084C696.89 27.268 696.65 26.284 696.602 25.132H699.662ZM718.274 9.04H715.214V5.296H718.274V9.04ZM715.214 12.388H718.274V31H715.214V12.388ZM738.314 29.416C738.314 32.464 737.618 34.744 736.226 36.256C734.834 37.768 732.65 38.524 729.674 38.524C728.81 38.524 727.922 38.428 727.01 38.236C726.122 38.044 725.306 37.732 724.562 37.3C723.842 36.868 723.242 36.304 722.762 35.608C722.282 34.912 722.018 34.06 721.97 33.052H725.03C725.054 33.604 725.222 34.072 725.534 34.456C725.87 34.84 726.266 35.152 726.722 35.392C727.202 35.632 727.718 35.8 728.27 35.896C728.822 36.016 729.35 36.076 729.854 36.076C730.862 36.076 731.714 35.896 732.41 35.536C733.106 35.2 733.682 34.72 734.138 34.096C734.594 33.496 734.918 32.764 735.11 31.9C735.326 31.036 735.434 30.088 735.434 29.056V27.832H735.362C734.834 28.984 734.03 29.836 732.95 30.388C731.894 30.916 730.766 31.18 729.566 31.18C728.174 31.18 726.962 30.928 725.93 30.424C724.898 29.92 724.034 29.248 723.338 28.408C722.642 27.544 722.114 26.548 721.754 25.42C721.418 24.268 721.25 23.056 721.25 21.784C721.25 20.68 721.394 19.552 721.682 18.4C721.97 17.224 722.45 16.168 723.122 15.232C723.794 14.272 724.682 13.492 725.786 12.892C726.89 12.268 728.246 11.956 729.854 11.956C731.03 11.956 732.11 12.22 733.094 12.748C734.078 13.252 734.846 14.02 735.398 15.052H735.434V12.388H738.314V29.416ZM729.746 28.516C730.754 28.516 731.606 28.312 732.302 27.904C733.022 27.472 733.598 26.92 734.03 26.248C734.462 25.552 734.774 24.772 734.966 23.908C735.182 23.044 735.29 22.18 735.29 21.316C735.29 20.5 735.194 19.696 735.002 18.904C734.81 18.112 734.498 17.404 734.066 16.78C733.658 16.132 733.118 15.616 732.446 15.232C731.774 14.848 730.958 14.656 729.998 14.656C729.014 14.656 728.174 14.848 727.478 15.232C726.782 15.592 726.206 16.084 725.75 16.708C725.318 17.332 724.994 18.052 724.778 18.868C724.586 19.684 724.49 20.536 724.49 21.424C724.49 22.264 724.574 23.104 724.742 23.944C724.91 24.784 725.198 25.552 725.606 26.248C726.014 26.92 726.554 27.472 727.226 27.904C727.898 28.312 728.738 28.516 729.746 28.516ZM742.174 12.388H745.054V15.34H745.126C746.398 13.084 748.414 11.956 751.174 11.956C752.398 11.956 753.418 12.124 754.234 12.46C755.05 12.796 755.71 13.264 756.214 13.864C756.718 14.464 757.066 15.184 757.258 16.024C757.474 16.84 757.582 17.752 757.582 18.76V31H754.522V18.4C754.522 17.248 754.186 16.336 753.514 15.664C752.842 14.992 751.918 14.656 750.742 14.656C749.806 14.656 748.99 14.8 748.294 15.088C747.622 15.376 747.058 15.784 746.602 16.312C746.146 16.84 745.798 17.464 745.558 18.184C745.342 18.88 745.234 19.648 745.234 20.488V31H742.174V12.388ZM774.346 19.912C774.298 19.192 774.13 18.508 773.842 17.86C773.578 17.212 773.206 16.66 772.726 16.204C772.27 15.724 771.718 15.352 771.07 15.088C770.446 14.8 769.75 14.656 768.982 14.656C768.19 14.656 767.47 14.8 766.822 15.088C766.198 15.352 765.658 15.724 765.202 16.204C764.746 16.684 764.386 17.248 764.122 17.896C763.858 18.52 763.702 19.192 763.654 19.912H774.346ZM777.298 25.096C776.89 27.184 775.99 28.756 774.598 29.812C773.206 30.868 771.454 31.396 769.342 31.396C767.854 31.396 766.558 31.156 765.454 30.676C764.374 30.196 763.462 29.524 762.718 28.66C761.974 27.796 761.41 26.764 761.026 25.564C760.666 24.364 760.462 23.056 760.414 21.64C760.414 20.224 760.63 18.928 761.062 17.752C761.494 16.576 762.094 15.556 762.862 14.692C763.654 13.828 764.578 13.156 765.634 12.676C766.714 12.196 767.89 11.956 769.162 11.956C770.818 11.956 772.186 12.304 773.266 13C774.37 13.672 775.246 14.536 775.894 15.592C776.566 16.648 777.022 17.8 777.262 19.048C777.526 20.296 777.634 21.484 777.586 22.612H763.654C763.63 23.428 763.726 24.208 763.942 24.952C764.158 25.672 764.506 26.32 764.986 26.896C765.466 27.448 766.078 27.892 766.822 28.228C767.566 28.564 768.442 28.732 769.45 28.732C770.746 28.732 771.802 28.432 772.618 27.832C773.458 27.232 774.01 26.32 774.274 25.096H777.298ZM779.894 12.388H782.774V16.312H782.846C783.59 14.8 784.502 13.684 785.582 12.964C786.662 12.244 788.03 11.908 789.686 11.956V15.196C788.462 15.196 787.418 15.364 786.554 15.7C785.69 16.036 784.994 16.528 784.466 17.176C783.938 17.824 783.554 18.616 783.314 19.552C783.074 20.464 782.954 21.52 782.954 22.72V31H779.894V12.388Z" fill="#1E1E1E"/>
<path d="M340.188 320.12H345.876C346.26 320.12 346.74 320.096 347.316 320.048C347.892 319.976 348.504 319.832 349.152 319.616C349.8 319.376 350.436 319.04 351.06 318.608C351.708 318.176 352.284 317.588 352.788 316.844C353.292 316.1 353.7 315.176 354.012 314.072C354.348 312.944 354.516 311.588 354.516 310.004C354.516 308.468 354.36 307.1 354.048 305.9C353.76 304.676 353.268 303.644 352.572 302.804C351.9 301.94 351.024 301.292 349.944 300.86C348.864 300.404 347.532 300.176 345.948 300.176H340.188V320.12ZM336.768 297.296H345.588C349.548 297.296 352.596 298.304 354.732 300.32C356.868 302.336 357.936 305.408 357.936 309.536C357.936 311.696 357.696 313.616 357.216 315.296C356.736 316.952 355.992 318.356 354.984 319.508C353.976 320.636 352.692 321.5 351.132 322.1C349.572 322.7 347.724 323 345.588 323H336.768V297.296ZM364.096 301.04H361.036V297.296H364.096V301.04ZM361.036 304.388H364.096V323H361.036V304.388ZM367.973 304.388H370.853V308.312H370.925C371.669 306.8 372.581 305.684 373.661 304.964C374.741 304.244 376.109 303.908 377.765 303.956V307.196C376.541 307.196 375.497 307.364 374.633 307.7C373.769 308.036 373.073 308.528 372.545 309.176C372.017 309.824 371.633 310.616 371.393 311.552C371.153 312.464 371.033 313.52 371.033 314.72V323H367.973V304.388ZM391.604 311.912C391.556 311.192 391.388 310.508 391.1 309.86C390.836 309.212 390.464 308.66 389.984 308.204C389.528 307.724 388.976 307.352 388.328 307.088C387.704 306.8 387.008 306.656 386.24 306.656C385.448 306.656 384.728 306.8 384.08 307.088C383.456 307.352 382.916 307.724 382.46 308.204C382.004 308.684 381.644 309.248 381.38 309.896C381.116 310.52 380.96 311.192 380.912 311.912H391.604ZM394.556 317.096C394.148 319.184 393.248 320.756 391.856 321.812C390.464 322.868 388.712 323.396 386.6 323.396C385.112 323.396 383.816 323.156 382.712 322.676C381.632 322.196 380.72 321.524 379.976 320.66C379.232 319.796 378.668 318.764 378.284 317.564C377.924 316.364 377.72 315.056 377.672 313.64C377.672 312.224 377.888 310.928 378.32 309.752C378.752 308.576 379.352 307.556 380.12 306.692C380.912 305.828 381.836 305.156 382.892 304.676C383.972 304.196 385.148 303.956 386.42 303.956C388.076 303.956 389.444 304.304 390.524 305C391.628 305.672 392.504 306.536 393.152 307.592C393.824 308.648 394.28 309.8 394.52 311.048C394.784 312.296 394.892 313.484 394.844 314.612H380.912C380.888 315.428 380.984 316.208 381.2 316.952C381.416 317.672 381.764 318.32 382.244 318.896C382.724 319.448 383.336 319.892 384.08 320.228C384.824 320.564 385.7 320.732 386.708 320.732C388.004 320.732 389.06 320.432 389.876 319.832C390.716 319.232 391.268 318.32 391.532 317.096H394.556ZM409.896 310.364C409.656 309.188 409.152 308.276 408.384 307.628C407.616 306.98 406.584 306.656 405.288 306.656C404.184 306.656 403.26 306.86 402.516 307.268C401.772 307.676 401.172 308.216 400.716 308.888C400.284 309.56 399.972 310.34 399.78 311.228C399.588 312.092 399.492 312.992 399.492 313.928C399.492 314.792 399.588 315.632 399.78 316.448C399.996 317.264 400.32 317.996 400.752 318.644C401.184 319.268 401.748 319.772 402.444 320.156C403.14 320.54 403.968 320.732 404.928 320.732C406.44 320.732 407.616 320.336 408.456 319.544C409.32 318.752 409.848 317.636 410.04 316.196H413.172C412.836 318.5 411.972 320.276 410.58 321.524C409.212 322.772 407.34 323.396 404.964 323.396C403.548 323.396 402.288 323.168 401.184 322.712C400.104 322.256 399.192 321.608 398.448 320.768C397.728 319.928 397.176 318.932 396.792 317.78C396.432 316.604 396.252 315.32 396.252 313.928C396.252 312.536 396.432 311.24 396.792 310.04C397.152 308.816 397.692 307.76 398.412 306.872C399.156 305.96 400.08 305.252 401.184 304.748C402.288 304.22 403.572 303.956 405.036 303.956C406.092 303.956 407.076 304.088 407.988 304.352C408.924 304.592 409.74 304.976 410.436 305.504C411.156 306.032 411.744 306.704 412.2 307.52C412.656 308.312 412.944 309.26 413.064 310.364H409.896ZM420.088 304.388H423.796V307.088H420.088V318.644C420.088 319.004 420.112 319.292 420.16 319.508C420.232 319.724 420.352 319.892 420.52 320.012C420.688 320.132 420.916 320.216 421.204 320.264C421.516 320.288 421.912 320.3 422.392 320.3H423.796V323H421.456C420.664 323 419.98 322.952 419.404 322.856C418.852 322.736 418.396 322.532 418.036 322.244C417.7 321.956 417.448 321.548 417.28 321.02C417.112 320.492 417.028 319.796 417.028 318.932V307.088H413.86V304.388H417.028V298.808H420.088V304.388ZM428.671 313.712C428.671 314.84 428.815 315.848 429.103 316.736C429.415 317.6 429.835 318.332 430.363 318.932C430.891 319.508 431.503 319.952 432.199 320.264C432.919 320.576 433.675 320.732 434.467 320.732C435.259 320.732 436.003 320.576 436.699 320.264C437.419 319.952 438.043 319.508 438.571 318.932C439.099 318.332 439.507 317.6 439.795 316.736C440.107 315.848 440.263 314.84 440.263 313.712C440.263 312.584 440.107 311.588 439.795 310.724C439.507 309.836 439.099 309.092 438.571 308.492C438.043 307.892 437.419 307.436 436.699 307.124C436.003 306.812 435.259 306.656 434.467 306.656C433.675 306.656 432.919 306.812 432.199 307.124C431.503 307.436 430.891 307.892 430.363 308.492C429.835 309.092 429.415 309.836 429.103 310.724C428.815 311.588 428.671 312.584 428.671 313.712ZM425.431 313.712C425.431 312.344 425.623 311.072 426.007 309.896C426.391 308.696 426.967 307.664 427.735 306.8C428.503 305.912 429.451 305.216 430.579 304.712C431.707 304.208 433.003 303.956 434.467 303.956C435.955 303.956 437.251 304.208 438.355 304.712C439.483 305.216 440.431 305.912 441.199 306.8C441.967 307.664 442.543 308.696 442.927 309.896C443.311 311.072 443.503 312.344 443.503 313.712C443.503 315.08 443.311 316.352 442.927 317.528C442.543 318.704 441.967 319.736 441.199 320.624C440.431 321.488 439.483 322.172 438.355 322.676C437.251 323.156 435.955 323.396 434.467 323.396C433.003 323.396 431.707 323.156 430.579 322.676C429.451 322.172 428.503 321.488 427.735 320.624C426.967 319.736 426.391 318.704 426.007 317.528C425.623 316.352 425.431 315.08 425.431 313.712ZM446.247 304.388H449.127V308.312H449.199C449.943 306.8 450.855 305.684 451.935 304.964C453.015 304.244 454.383 303.908 456.039 303.956V307.196C454.815 307.196 453.771 307.364 452.907 307.7C452.043 308.036 451.347 308.528 450.819 309.176C450.291 309.824 449.907 310.616 449.667 311.552C449.427 312.464 449.307 313.52 449.307 314.72V323H446.247V304.388Z" fill="#1E1E1E"/>
</svg>
