<svg width="537" height="537" viewBox="0 0 537 537" fill="none" xmlns="http://www.w3.org/2000/svg">
<path fill-rule="evenodd" clip-rule="evenodd" d="M265.459 2.01264C260.828 28.6464 252.452 80.968 252.452 111.036C252.452 133.279 247.396 129.42 236.401 121.028C226.855 113.741 212.83 103.036 193.752 103.036C152.701 103.036 152.731 189.687 193.752 189.687C213.443 189.687 227.757 182.523 237.317 177.738C247.673 172.555 252.452 170.162 252.452 182.687C252.452 206.775 268.209 268.126 268.209 268.126C268.209 268.126 332.834 285.815 363.617 299.496C378.656 306.18 377.767 301.476 375.697 290.524C373.53 279.058 370.069 260.746 382.232 241.484C406.015 203.823 472.752 251.607 451.662 283.102C442.507 296.774 429.9 303.698 420.66 308.774C408.614 315.39 402.289 318.864 416.793 330.048C430.47 340.593 469.199 369.593 502.351 394.349C522.643 356.78 534.161 313.775 534.161 268.081C534.161 121.128 415.033 2 268.081 2C267.206 2 266.332 2.00422 265.459 2.01264Z" fill="#1CB9B1"/>
<path d="M265.459 2.01264L265.44 0.0127361L263.774 0.0288113L263.489 1.67L265.459 2.01264ZM236.401 121.028L237.615 119.438L237.615 119.438L236.401 121.028ZM237.317 177.738L236.422 175.949L236.422 175.949L237.317 177.738ZM268.209 268.126L266.271 268.623L266.56 269.748L267.681 270.055L268.209 268.126ZM363.617 299.496L362.805 301.323L362.805 301.323L363.617 299.496ZM375.697 290.524L377.662 290.152L377.662 290.152L375.697 290.524ZM382.232 241.484L383.923 242.552L383.923 242.552L382.232 241.484ZM451.662 283.102L453.324 284.215L453.324 284.215L451.662 283.102ZM420.66 308.774L419.697 307.021L419.697 307.021L420.66 308.774ZM416.793 330.048L418.015 328.464L418.015 328.464L416.793 330.048ZM502.351 394.349L501.154 395.952L503.01 397.337L504.11 395.3L502.351 394.349ZM254.452 111.036C254.452 81.1727 262.792 29.0281 267.43 2.35529L263.489 1.67C258.864 28.2646 250.452 80.7633 250.452 111.036H254.452ZM235.188 122.618C237.901 124.688 240.385 126.588 242.53 127.857C243.61 128.495 244.691 129.027 245.748 129.338C246.808 129.65 247.964 129.773 249.108 129.441C251.524 128.739 252.752 126.416 253.433 123.637C254.139 120.758 254.452 116.629 254.452 111.036H250.452C250.452 116.564 250.134 120.294 249.548 122.685C248.937 125.177 248.214 125.535 247.992 125.6C247.817 125.651 247.482 125.679 246.876 125.5C246.266 125.321 245.506 124.969 244.566 124.413C242.67 123.293 240.399 121.563 237.615 119.438L235.188 122.618ZM193.752 105.036C212.076 105.036 225.604 115.302 235.188 122.618L237.615 119.438C228.105 112.179 213.585 101.036 193.752 101.036V105.036ZM193.752 187.687C184.323 187.687 177.21 182.753 172.364 175.08C167.484 167.351 164.976 156.915 164.975 146.361C164.973 135.807 167.476 125.371 172.356 117.643C177.2 109.97 184.315 105.036 193.752 105.036V101.036C182.662 101.036 174.387 106.933 168.974 115.507C163.595 124.026 160.973 135.253 160.975 146.362C160.977 157.471 163.603 168.697 168.982 177.216C174.396 185.79 182.669 191.687 193.752 191.687V187.687ZM236.422 175.949C226.887 180.722 212.939 187.687 193.752 187.687V191.687C213.948 191.687 228.626 184.325 238.212 179.526L236.422 175.949ZM254.452 182.687C254.452 179.495 254.158 176.965 253.388 175.128C252.991 174.179 252.437 173.342 251.665 172.706C250.879 172.06 249.974 171.71 249.023 171.588C247.236 171.359 245.256 171.931 243.312 172.705C241.31 173.501 238.984 174.667 236.422 175.949L238.212 179.526C240.828 178.217 242.983 177.141 244.79 176.422C246.654 175.68 247.811 175.466 248.513 175.556C248.807 175.594 248.985 175.681 249.123 175.795C249.275 175.92 249.487 176.167 249.699 176.674C250.149 177.749 250.452 179.617 250.452 182.687H254.452ZM268.209 268.126C270.146 267.628 270.146 267.628 270.146 267.628C270.145 267.627 270.145 267.627 270.145 267.626C270.145 267.624 270.144 267.621 270.143 267.618C270.141 267.611 270.138 267.6 270.135 267.585C270.127 267.556 270.116 267.512 270.101 267.454C270.072 267.339 270.028 267.166 269.97 266.939C269.855 266.486 269.687 265.818 269.472 264.958C269.042 263.238 268.428 260.753 267.691 257.695C266.216 251.578 264.251 243.173 262.286 234.019C258.338 215.629 254.452 194.481 254.452 182.687H250.452C250.452 194.98 254.445 216.552 258.375 234.859C260.349 244.054 262.322 252.493 263.802 258.632C264.542 261.702 265.159 264.198 265.591 265.927C265.807 266.792 265.977 267.465 266.093 267.922C266.151 268.151 266.195 268.326 266.225 268.443C266.24 268.502 266.252 268.547 266.26 268.577C266.263 268.592 266.266 268.604 266.268 268.611C266.269 268.615 266.27 268.618 266.271 268.62C266.271 268.621 266.271 268.622 266.271 268.622C266.271 268.623 266.271 268.623 268.209 268.126ZM364.429 297.668C348.915 290.773 324.957 282.9 304.955 276.768C294.939 273.697 285.886 271.055 279.338 269.181C276.063 268.243 273.415 267.498 271.584 266.986C270.668 266.73 269.957 266.533 269.475 266.4C269.233 266.333 269.049 266.283 268.925 266.248C268.863 266.231 268.816 266.218 268.785 266.21C268.769 266.205 268.757 266.202 268.749 266.2C268.745 266.199 268.742 266.198 268.74 266.198C268.739 266.197 268.738 266.197 268.737 266.197C268.737 266.197 268.737 266.197 268.209 268.126C267.681 270.055 267.681 270.055 267.681 270.055C267.682 270.055 267.682 270.055 267.683 270.055C267.685 270.056 267.688 270.057 267.692 270.058C267.699 270.06 267.711 270.063 267.726 270.067C267.757 270.076 267.803 270.088 267.865 270.105C267.987 270.139 268.169 270.189 268.409 270.255C268.888 270.388 269.596 270.584 270.507 270.839C272.331 271.348 274.972 272.091 278.237 273.026C284.768 274.896 293.796 277.531 303.783 280.592C323.79 286.726 347.536 294.538 362.805 301.323L364.429 297.668ZM373.732 290.895C374.257 293.675 374.674 295.895 374.803 297.634C374.941 299.495 374.683 300.164 374.525 300.357C374.525 300.357 374.252 300.773 372.464 300.48C370.729 300.196 368.158 299.326 364.429 297.668L362.805 301.323C366.595 303.008 369.553 304.056 371.816 304.427C374.026 304.79 376.222 304.599 377.621 302.89C378.862 301.373 378.933 299.23 378.792 297.338C378.642 295.323 378.172 292.848 377.662 290.152L373.732 290.895ZM380.541 240.416C367.929 260.388 371.56 279.405 373.732 290.895L377.662 290.152C375.5 278.711 372.208 261.104 383.923 242.552L380.541 240.416ZM453.324 284.215C459.063 275.645 458.756 266.002 454.886 257.21C451.037 248.466 443.634 240.44 434.872 234.688C426.111 228.936 415.796 225.329 406.01 225.671C396.132 226.016 386.868 230.397 380.541 240.416L383.923 242.552C389.487 233.741 397.485 229.971 406.149 229.668C414.906 229.362 424.416 232.608 432.677 238.031C440.935 243.454 447.749 250.926 451.225 258.822C454.68 266.671 454.807 274.812 450 281.989L453.324 284.215ZM421.623 310.527C430.856 305.455 443.87 298.333 453.324 284.215L450 281.989C441.145 295.214 428.945 301.941 419.697 307.021L421.623 310.527ZM418.015 328.464C414.443 325.71 412.345 323.57 411.278 321.872C410.264 320.259 410.292 319.254 410.619 318.46C411.026 317.472 412.08 316.344 414.075 314.959C416.03 313.601 418.58 312.198 421.623 310.527L419.697 307.021C416.716 308.658 413.958 310.17 411.793 311.674C409.667 313.15 407.788 314.83 406.921 316.937C405.974 319.236 406.388 321.61 407.891 324.001C409.341 326.306 411.891 328.794 415.572 331.632L418.015 328.464ZM503.547 392.747C470.389 367.985 431.676 338.998 418.015 328.464L415.572 331.632C429.264 342.189 468.009 371.2 501.154 395.952L503.547 392.747ZM532.161 268.081C532.161 313.435 520.729 356.114 500.591 393.399L504.11 395.3C524.556 357.446 536.161 314.115 536.161 268.081H532.161ZM268.081 4C413.928 4 532.161 122.233 532.161 268.081H536.161C536.161 120.024 416.137 0 268.081 0V4ZM265.479 4.01255C266.345 4.00419 267.212 4 268.081 4V0C267.199 0 266.319 0.00425178 265.44 0.0127361L265.479 4.01255Z" fill="#F0F1F5"/>
<g opacity="0.2">
<path fill-rule="evenodd" clip-rule="evenodd" d="M268.37 268.193C268.37 268.193 237.776 307.311 202.44 327.802C181.915 339.704 189.646 343.826 202.871 350.879C212.414 355.968 224.82 362.584 231.532 374.75C247.547 403.776 190.336 446.78 169.318 419.756C160.347 408.222 159.051 393.11 158.022 381.113C156.64 365.002 155.74 354.508 137.383 365.835C119.271 377.011 75.941 394.609 41.7069 407.793C16.6315 367.201 2.16113 319.364 2.16113 268.148C2.16113 122.07 119.875 3.4866 265.621 2.08008C260.989 28.7138 252.613 81.0354 252.613 111.103C252.613 133.347 247.557 129.487 236.563 121.095C227.016 113.808 212.992 103.103 193.913 103.103C152.862 103.103 152.892 189.754 193.913 189.754C213.605 189.754 227.918 182.59 237.478 177.805C247.834 172.622 252.613 170.23 252.613 182.754C252.613 206.842 268.37 268.193 268.37 268.193Z" fill="#F56293"/>
<path d="M202.44 327.802L201.436 326.072L201.436 326.072L202.44 327.802ZM268.37 268.193L269.945 269.425L270.552 268.649L270.307 267.696L268.37 268.193ZM202.871 350.879L201.929 352.643L201.929 352.643L202.871 350.879ZM231.532 374.75L229.781 375.716L229.781 375.716L231.532 374.75ZM169.318 419.756L167.739 420.984L167.739 420.984L169.318 419.756ZM158.022 381.113L160.015 380.942L160.015 380.942L158.022 381.113ZM137.383 365.835L136.333 364.133L136.333 364.133L137.383 365.835ZM41.7069 407.793L40.0054 408.844L40.8774 410.255L42.4257 409.659L41.7069 407.793ZM265.621 2.08008L267.591 2.42272L268.002 0.0570001L265.601 0.0801722L265.621 2.08008ZM236.563 121.095L235.349 122.685L235.349 122.685L236.563 121.095ZM237.478 177.805L236.583 176.017L236.583 176.017L237.478 177.805ZM203.443 329.532C221.339 319.154 237.968 304.106 250.086 291.712C256.155 285.504 261.113 279.941 264.555 275.928C266.277 273.92 267.621 272.3 268.536 271.178C268.993 270.618 269.344 270.182 269.581 269.885C269.699 269.737 269.789 269.623 269.85 269.546C269.881 269.507 269.904 269.478 269.92 269.457C269.928 269.447 269.934 269.44 269.938 269.434C269.94 269.432 269.942 269.429 269.943 269.428C269.944 269.427 269.944 269.427 269.944 269.426C269.945 269.426 269.945 269.425 268.37 268.193C266.794 266.961 266.794 266.961 266.794 266.961C266.794 266.961 266.794 266.961 266.794 266.962C266.793 266.963 266.792 266.964 266.79 266.966C266.787 266.97 266.782 266.977 266.775 266.986C266.761 267.003 266.74 267.03 266.711 267.066C266.655 267.138 266.569 267.247 266.454 267.39C266.226 267.676 265.885 268.1 265.437 268.649C264.54 269.748 263.218 271.343 261.519 273.323C258.121 277.285 253.223 282.782 247.226 288.915C235.213 301.202 218.877 315.958 201.436 326.072L203.443 329.532ZM203.812 349.114C200.471 347.332 197.623 345.811 195.475 344.326C193.261 342.796 192.214 341.582 191.915 340.584C191.687 339.824 191.76 338.679 193.474 336.775C195.215 334.843 198.359 332.48 203.443 329.532L201.436 326.072C196.258 329.075 192.672 331.69 190.502 334.098C188.307 336.535 187.291 339.093 188.083 341.733C188.804 344.136 190.887 346.018 193.201 347.617C195.58 349.26 198.658 350.899 201.929 352.643L203.812 349.114ZM233.284 373.784C226.241 361.019 213.275 354.16 203.812 349.114L201.929 352.643C211.554 357.776 223.399 364.148 229.781 375.716L233.284 373.784ZM167.739 420.984C173.495 428.384 181.734 430.929 190.327 430.199C198.856 429.475 207.822 425.539 215.499 419.882C223.181 414.221 229.74 406.712 233.349 398.644C236.967 390.554 237.672 381.738 233.284 373.784L229.781 375.716C233.4 382.275 232.959 389.719 229.697 397.011C226.426 404.325 220.372 411.321 213.126 416.662C205.875 422.005 197.598 425.568 189.989 426.214C182.444 426.854 175.651 424.641 170.897 418.528L167.739 420.984ZM156.029 381.284C157.049 393.175 158.346 408.907 167.739 420.984L170.897 418.528C162.347 407.536 161.053 393.046 160.015 380.942L156.029 381.284ZM138.433 367.537C142.95 364.75 146.158 363.462 148.421 363.161C150.524 362.881 151.685 363.452 152.534 364.467C153.532 365.661 154.276 367.693 154.829 370.698C155.373 373.656 155.681 377.226 156.029 381.284L160.015 380.942C159.672 376.944 159.349 373.161 158.763 369.974C158.185 366.835 157.297 363.93 155.603 361.902C153.759 359.696 151.167 358.76 147.894 359.196C144.783 359.609 140.994 361.257 136.333 364.133L138.433 367.537ZM42.4257 409.659C76.5953 396.5 120.127 378.832 138.433 367.537L136.333 364.133C118.414 375.189 75.2867 392.718 40.9882 405.926L42.4257 409.659ZM43.4085 406.741C18.5225 366.457 4.16113 318.983 4.16113 268.148H0.161133C0.161133 319.746 14.7405 367.945 40.0054 408.844L43.4085 406.741ZM4.16113 268.148C4.16113 123.169 120.991 5.47593 265.64 4.07999L265.601 0.0801722C118.76 1.49727 0.161133 120.972 0.161133 268.148H4.16113ZM254.613 111.103C254.613 81.2401 262.953 29.0956 267.591 2.42272L263.65 1.73743C259.025 28.3321 250.613 80.8307 250.613 111.103H254.613ZM235.349 122.685C238.062 124.756 240.546 126.656 242.691 127.924C243.771 128.563 244.852 129.095 245.909 129.405C246.969 129.717 248.125 129.841 249.269 129.508C251.685 128.806 252.913 126.483 253.594 123.705C254.3 120.826 254.613 116.697 254.613 111.103H250.613C250.613 116.632 250.295 120.362 249.709 122.753C249.098 125.244 248.375 125.602 248.153 125.667C247.978 125.718 247.643 125.746 247.037 125.568C246.427 125.389 245.667 125.037 244.727 124.481C242.831 123.36 240.56 121.631 237.776 119.505L235.349 122.685ZM193.913 105.103C212.237 105.103 225.765 115.37 235.349 122.685L237.776 119.505C228.266 112.247 213.746 101.103 193.913 101.103V105.103ZM193.913 187.754C184.484 187.754 177.371 182.82 172.525 175.147C167.645 167.419 165.138 156.982 165.136 146.429C165.134 135.875 167.637 125.439 172.517 117.71C177.361 110.038 184.476 105.103 193.913 105.103V101.103C182.824 101.103 174.548 107 169.135 115.575C163.756 124.094 161.134 135.32 161.136 146.429C161.138 157.538 163.764 168.765 169.143 177.283C174.558 185.857 182.831 191.754 193.913 191.754V187.754ZM236.583 176.017C227.049 180.789 213.1 187.754 193.913 187.754V191.754C214.109 191.754 228.787 184.392 238.373 179.594L236.583 176.017ZM254.613 182.754C254.613 179.562 254.319 177.033 253.55 175.196C253.152 174.247 252.598 173.409 251.826 172.774C251.04 172.127 250.135 171.778 249.184 171.656C247.397 171.426 245.417 171.999 243.473 172.772C241.471 173.568 239.145 174.734 236.583 176.017L238.373 179.594C240.989 178.285 243.144 177.208 244.951 176.489C246.815 175.748 247.972 175.533 248.674 175.623C248.968 175.661 249.146 175.748 249.284 175.862C249.436 175.987 249.648 176.234 249.86 176.741C250.311 177.816 250.613 179.684 250.613 182.754H254.613ZM268.37 268.193C270.307 267.696 270.307 267.695 270.307 267.695C270.307 267.695 270.306 267.694 270.306 267.693C270.306 267.691 270.305 267.689 270.304 267.685C270.302 267.678 270.299 267.667 270.296 267.653C270.288 267.623 270.277 267.58 270.262 267.522C270.233 267.406 270.189 267.233 270.131 267.007C270.017 266.554 269.848 265.885 269.633 265.025C269.203 263.305 268.589 260.82 267.852 257.762C266.378 251.645 264.412 243.24 262.447 234.087C258.499 215.696 254.613 194.548 254.613 182.754H250.613C250.613 195.048 254.606 216.619 258.536 234.926C260.51 244.122 262.484 252.56 263.963 258.699C264.703 261.769 265.32 264.265 265.752 265.995C265.968 266.859 266.138 267.532 266.254 267.99C266.312 268.218 266.357 268.393 266.387 268.511C266.402 268.57 266.413 268.615 266.421 268.645C266.425 268.66 266.427 268.671 266.429 268.679C266.43 268.683 266.431 268.685 266.432 268.687C266.432 268.688 266.432 268.689 266.432 268.69C266.432 268.69 266.433 268.691 268.37 268.193Z" fill="#F0F1F5"/>
</g>
<g opacity="0.2">
<path fill-rule="evenodd" clip-rule="evenodd" d="M268.369 268.194C268.369 268.194 332.834 285.815 363.617 299.496C378.656 306.18 377.767 301.476 375.697 290.524C373.529 279.058 370.068 260.746 382.232 241.484C406.014 203.823 476.841 245.5 451.662 283.102C439.971 300.561 426.094 307.668 417.146 312.25C406.824 317.536 403.063 319.461 416.793 330.048C430.47 340.593 469.199 369.593 502.35 394.349C457.385 477.6 369.338 534.161 268.08 534.161C172.389 534.161 88.4949 483.647 41.6103 407.83C75.8594 394.642 119.253 377.021 137.382 365.835C155.74 354.508 156.64 365.003 158.021 381.113C159.05 393.111 160.346 408.222 169.317 419.757C190.336 446.78 247.546 403.776 231.532 374.751C224.819 362.584 212.414 355.969 202.87 350.879C189.645 343.826 181.914 339.704 202.439 327.802C237.776 307.311 268.369 268.194 268.369 268.194Z" fill="#1C4AB9"/>
<path d="M363.617 299.496L362.804 301.323L362.804 301.323L363.617 299.496ZM268.369 268.194L268.896 266.264L267.613 265.914L266.794 266.961L268.369 268.194ZM375.697 290.524L377.662 290.152L377.662 290.152L375.697 290.524ZM382.232 241.484L383.923 242.552L383.923 242.552L382.232 241.484ZM451.662 283.102L450 281.989L450 281.989L451.662 283.102ZM417.146 312.25L416.235 310.469L416.235 310.469L417.146 312.25ZM416.793 330.048L418.014 328.464L418.014 328.464L416.793 330.048ZM502.35 394.349L504.11 395.3L504.931 393.78L503.547 392.747L502.35 394.349ZM41.6103 407.83L40.8917 405.963L38.6406 406.83L39.9093 408.882L41.6103 407.83ZM137.382 365.835L136.332 364.133L136.332 364.133L137.382 365.835ZM158.021 381.113L156.029 381.284L156.029 381.284L158.021 381.113ZM169.317 419.757L167.739 420.985L167.739 420.985L169.317 419.757ZM231.532 374.751L233.283 373.784L233.283 373.784L231.532 374.751ZM202.87 350.879L203.811 349.114L203.811 349.114L202.87 350.879ZM202.439 327.802L203.442 329.532L203.442 329.532L202.439 327.802ZM364.429 297.668C348.915 290.773 324.997 282.917 305.035 276.802C295.038 273.74 286.006 271.106 279.473 269.238C276.206 268.303 273.563 267.561 271.737 267.051C270.823 266.796 270.114 266.6 269.633 266.467C269.392 266.4 269.208 266.35 269.085 266.316C269.023 266.299 268.976 266.286 268.944 266.277C268.929 266.273 268.917 266.27 268.909 266.268C268.905 266.267 268.902 266.266 268.9 266.265C268.899 266.265 268.898 266.265 268.897 266.265C268.897 266.264 268.896 266.264 268.369 268.194C267.842 270.123 267.842 270.123 267.842 270.123C267.843 270.123 267.843 270.123 267.844 270.123C267.846 270.124 267.849 270.125 267.853 270.126C267.86 270.128 267.872 270.131 267.887 270.135C267.918 270.144 267.964 270.156 268.025 270.173C268.147 270.207 268.329 270.257 268.568 270.323C269.046 270.455 269.752 270.65 270.662 270.904C272.481 271.411 275.115 272.152 278.373 273.084C284.889 274.947 293.896 277.573 303.864 280.627C323.83 286.743 347.536 294.538 362.804 301.323L364.429 297.668ZM373.731 290.895C374.257 293.675 374.674 295.895 374.803 297.634C374.941 299.495 374.682 300.164 374.525 300.357C374.524 300.357 374.252 300.773 372.463 300.48C370.729 300.196 368.158 299.326 364.429 297.668L362.804 301.323C366.595 303.008 369.552 304.056 371.816 304.427C374.026 304.79 376.222 304.599 377.62 302.89C378.861 301.373 378.932 299.23 378.792 297.338C378.642 295.323 378.171 292.848 377.662 290.152L373.731 290.895ZM380.541 240.416C367.929 260.388 371.56 279.405 373.731 290.895L377.662 290.152C375.499 278.711 372.208 261.104 383.923 242.552L380.541 240.416ZM453.324 284.215C460.007 274.234 460.34 263.878 456.635 254.692C452.964 245.589 445.379 237.724 436.329 232.35C427.275 226.973 416.568 223.976 406.488 224.818C396.345 225.665 386.859 230.411 380.541 240.416L383.923 242.552C389.496 233.726 397.782 229.559 406.821 228.804C415.923 228.043 425.808 230.754 434.286 235.789C442.768 240.826 449.655 248.078 452.926 256.188C456.163 264.215 455.906 273.169 450 281.989L453.324 284.215ZM418.058 314.03C427.069 309.415 441.336 302.118 453.324 284.215L450 281.989C438.606 299.005 425.118 305.92 416.235 310.469L418.058 314.03ZM418.014 328.464C414.609 325.838 412.423 323.849 411.159 322.286C409.873 320.696 409.836 319.915 409.908 319.569C409.997 319.141 410.426 318.457 411.936 317.422C413.396 316.421 415.434 315.373 418.058 314.03L416.235 310.469C413.697 311.769 411.394 312.944 409.675 314.122C408.006 315.266 406.417 316.716 405.992 318.753C405.55 320.872 406.502 322.889 408.049 324.802C409.619 326.743 412.113 328.964 415.572 331.632L418.014 328.464ZM503.547 392.747C470.389 367.985 431.676 338.998 418.014 328.464L415.572 331.632C429.264 342.189 468.009 371.2 501.154 395.952L503.547 392.747ZM500.591 393.399C455.96 476.029 368.574 532.161 268.08 532.161V536.161C370.102 536.161 458.809 479.171 504.11 395.3L500.591 393.399ZM268.08 532.161C173.11 532.161 89.8468 482.031 43.3114 406.778L39.9093 408.882C87.1431 485.264 171.667 536.161 268.08 536.161V532.161ZM136.332 364.133C118.397 375.2 75.2053 392.751 40.8917 405.963L42.329 409.696C76.5135 396.534 120.11 378.843 138.432 367.538L136.332 364.133ZM160.014 380.942C159.671 376.945 159.349 373.162 158.762 369.975C158.184 366.835 157.297 363.93 155.602 361.903C153.758 359.696 151.166 358.761 147.894 359.196C144.782 359.61 140.994 361.257 136.332 364.133L138.432 367.538C142.949 364.75 146.157 363.462 148.421 363.161C150.523 362.882 151.685 363.453 152.533 364.468C153.531 365.662 154.275 367.693 154.828 370.699C155.372 373.656 155.681 377.227 156.029 381.284L160.014 380.942ZM170.896 418.529C162.347 407.537 161.052 393.046 160.014 380.942L156.029 381.284C157.048 393.175 158.346 408.908 167.739 420.985L170.896 418.529ZM229.781 375.717C233.399 382.275 232.958 389.719 229.697 397.012C226.425 404.326 220.371 411.322 213.125 416.662C205.874 422.006 197.597 425.568 189.988 426.214C182.443 426.855 175.65 424.641 170.896 418.529L167.739 420.985C173.494 428.384 181.734 430.929 190.327 430.2C198.856 429.476 207.821 425.54 215.498 419.882C223.18 414.221 229.74 406.713 233.348 398.645C236.966 390.555 237.671 381.738 233.283 373.784L229.781 375.717ZM201.929 352.644C211.553 357.776 223.398 364.148 229.781 375.717L233.283 373.784C226.24 361.02 213.274 354.161 203.811 349.114L201.929 352.644ZM201.436 326.072C196.257 329.075 192.671 331.69 190.502 334.099C188.307 336.535 187.29 339.093 188.083 341.734C188.803 344.136 190.886 346.018 193.2 347.617C195.579 349.261 198.657 350.899 201.929 352.644L203.811 349.114C200.47 347.333 197.623 345.811 195.474 344.326C193.26 342.796 192.213 341.582 191.914 340.584C191.686 339.825 191.759 338.68 193.474 336.776C195.214 334.843 198.359 332.48 203.442 329.532L201.436 326.072ZM268.369 268.194C266.794 266.961 266.794 266.961 266.794 266.961C266.793 266.962 266.793 266.962 266.793 266.962C266.792 266.963 266.791 266.965 266.789 266.967C266.786 266.971 266.781 266.977 266.774 266.986C266.76 267.004 266.739 267.031 266.711 267.067C266.654 267.139 266.568 267.247 266.454 267.39C266.225 267.676 265.884 268.101 265.436 268.65C264.54 269.748 263.217 271.343 261.519 273.324C258.121 277.285 253.222 282.782 247.225 288.916C235.212 301.203 218.876 315.959 201.436 326.072L203.442 329.532C221.338 319.155 237.968 304.106 250.085 291.712C256.154 285.505 261.112 279.942 264.555 275.928C266.276 273.921 267.62 272.3 268.535 271.179C268.992 270.618 269.343 270.182 269.58 269.886C269.698 269.737 269.788 269.623 269.85 269.546C269.88 269.508 269.903 269.478 269.919 269.458C269.927 269.448 269.933 269.44 269.937 269.435C269.939 269.432 269.941 269.43 269.942 269.428C269.943 269.428 269.943 269.427 269.944 269.427C269.944 269.426 269.944 269.426 268.369 268.194Z" fill="#F0F1F5"/>
</g>
<path opacity="0.2" d="M260.232 433.016C260.136 432.368 259.92 431.78 259.584 431.252C259.248 430.7 258.828 430.22 258.324 429.812C257.82 429.404 257.244 429.092 256.596 428.876C255.972 428.636 255.312 428.516 254.616 428.516C253.344 428.516 252.264 428.768 251.376 429.272C250.488 429.752 249.768 430.412 249.216 431.252C248.664 432.068 248.256 433.004 247.992 434.06C247.752 435.116 247.632 436.208 247.632 437.336C247.632 438.416 247.752 439.472 247.992 440.504C248.256 441.512 248.664 442.424 249.216 443.24C249.768 444.056 250.488 444.716 251.376 445.22C252.264 445.7 253.344 445.94 254.616 445.94C256.344 445.94 257.688 445.412 258.648 444.356C259.632 443.3 260.232 441.908 260.448 440.18H265.92C265.776 441.788 265.404 443.24 264.804 444.536C264.204 445.832 263.412 446.936 262.428 447.848C261.444 448.76 260.292 449.456 258.972 449.936C257.652 450.416 256.2 450.656 254.616 450.656C252.648 450.656 250.872 450.32 249.288 449.648C247.728 448.952 246.408 448.004 245.328 446.804C244.248 445.604 243.42 444.2 242.844 442.592C242.268 440.96 241.98 439.208 241.98 437.336C241.98 435.416 242.268 433.64 242.844 432.008C243.42 430.352 244.248 428.912 245.328 427.688C246.408 426.464 247.728 425.504 249.288 424.808C250.872 424.112 252.648 423.764 254.616 423.764C256.032 423.764 257.364 423.968 258.612 424.376C259.884 424.784 261.012 425.384 261.996 426.176C263.004 426.944 263.832 427.904 264.48 429.056C265.128 430.208 265.536 431.528 265.704 433.016H260.232ZM290.876 440.36C290.876 443.84 289.904 446.432 287.96 448.136C286.016 449.816 283.328 450.656 279.896 450.656C276.416 450.656 273.716 449.816 271.796 448.136C269.9 446.456 268.952 443.864 268.952 440.36V424.376H274.604V440.36C274.604 441.056 274.664 441.74 274.784 442.412C274.904 443.084 275.156 443.684 275.54 444.212C275.924 444.716 276.452 445.136 277.124 445.472C277.82 445.784 278.744 445.94 279.896 445.94C281.912 445.94 283.304 445.496 284.072 444.608C284.84 443.696 285.224 442.28 285.224 440.36V424.376H290.876V440.36ZM295.023 424.376H300.675V445.328H313.203V450.08H295.023V424.376ZM318.026 429.128H310.322V424.376H331.382V429.128H323.678V450.08H318.026V429.128ZM355.442 440.36C355.442 443.84 354.47 446.432 352.526 448.136C350.582 449.816 347.894 450.656 344.462 450.656C340.982 450.656 338.282 449.816 336.362 448.136C334.466 446.456 333.518 443.864 333.518 440.36V424.376H339.17V440.36C339.17 441.056 339.23 441.74 339.35 442.412C339.47 443.084 339.722 443.684 340.106 444.212C340.49 444.716 341.018 445.136 341.69 445.472C342.386 445.784 343.31 445.94 344.462 445.94C346.478 445.94 347.87 445.496 348.638 444.608C349.406 443.696 349.79 442.28 349.79 440.36V424.376H355.442V440.36ZM365.242 436.004H371.434C372.73 436.004 373.702 435.716 374.35 435.14C374.998 434.564 375.322 433.628 375.322 432.332C375.322 431.084 374.998 430.184 374.35 429.632C373.702 429.056 372.73 428.768 371.434 428.768H365.242V436.004ZM359.59 424.376H373.45C374.602 424.376 375.634 424.568 376.546 424.952C377.482 425.312 378.274 425.816 378.922 426.464C379.594 427.112 380.098 427.868 380.434 428.732C380.794 429.572 380.974 430.484 380.974 431.468C380.974 432.98 380.65 434.288 380.002 435.392C379.378 436.496 378.346 437.336 376.906 437.912V437.984C377.602 438.176 378.178 438.476 378.634 438.884C379.09 439.268 379.462 439.736 379.75 440.288C380.038 440.816 380.242 441.404 380.362 442.052C380.506 442.7 380.602 443.348 380.65 443.996C380.674 444.404 380.698 444.884 380.722 445.436C380.746 445.988 380.782 446.552 380.83 447.128C380.902 447.704 380.998 448.256 381.118 448.784C381.262 449.288 381.466 449.72 381.73 450.08H376.078C375.766 449.264 375.574 448.292 375.502 447.164C375.43 446.036 375.322 444.956 375.178 443.924C374.986 442.58 374.578 441.596 373.954 440.972C373.33 440.348 372.31 440.036 370.894 440.036H365.242V450.08H359.59V424.376ZM384.85 424.376H404.074V429.128H390.502V434.636H402.958V439.028H390.502V445.328H404.362V450.08H384.85V424.376Z" fill="white"/>
<path opacity="0.2" d="M77.893 227.016C77.797 226.368 77.581 225.78 77.245 225.252C76.909 224.7 76.489 224.22 75.985 223.812C75.481 223.404 74.905 223.092 74.257 222.876C73.633 222.636 72.973 222.516 72.277 222.516C71.005 222.516 69.925 222.768 69.037 223.272C68.149 223.752 67.429 224.412 66.877 225.252C66.325 226.068 65.917 227.004 65.653 228.06C65.413 229.116 65.293 230.208 65.293 231.336C65.293 232.416 65.413 233.472 65.653 234.504C65.917 235.512 66.325 236.424 66.877 237.24C67.429 238.056 68.149 238.716 69.037 239.22C69.925 239.7 71.005 239.94 72.277 239.94C74.005 239.94 75.349 239.412 76.309 238.356C77.293 237.3 77.893 235.908 78.109 234.18H83.581C83.437 235.788 83.065 237.24 82.465 238.536C81.865 239.832 81.073 240.936 80.089 241.848C79.105 242.76 77.953 243.456 76.633 243.936C75.313 244.416 73.861 244.656 72.277 244.656C70.309 244.656 68.533 244.32 66.949 243.648C65.389 242.952 64.069 242.004 62.989 240.804C61.909 239.604 61.081 238.2 60.505 236.592C59.929 234.96 59.641 233.208 59.641 231.336C59.641 229.416 59.929 227.64 60.505 226.008C61.081 224.352 61.909 222.912 62.989 221.688C64.069 220.464 65.389 219.504 66.949 218.808C68.533 218.112 70.309 217.764 72.277 217.764C73.693 217.764 75.025 217.968 76.273 218.376C77.545 218.784 78.673 219.384 79.657 220.176C80.665 220.944 81.493 221.904 82.141 223.056C82.789 224.208 83.197 225.528 83.365 227.016H77.893ZM92.3726 230.004H98.5646C99.8606 230.004 100.833 229.716 101.481 229.14C102.129 228.564 102.453 227.628 102.453 226.332C102.453 225.084 102.129 224.184 101.481 223.632C100.833 223.056 99.8606 222.768 98.5646 222.768H92.3726V230.004ZM86.7206 218.376H100.581C101.733 218.376 102.765 218.568 103.677 218.952C104.613 219.312 105.405 219.816 106.053 220.464C106.725 221.112 107.229 221.868 107.565 222.732C107.925 223.572 108.105 224.484 108.105 225.468C108.105 226.98 107.781 228.288 107.133 229.392C106.509 230.496 105.477 231.336 104.037 231.912V231.984C104.733 232.176 105.309 232.476 105.765 232.884C106.221 233.268 106.593 233.736 106.881 234.288C107.169 234.816 107.373 235.404 107.493 236.052C107.637 236.7 107.733 237.348 107.781 237.996C107.805 238.404 107.829 238.884 107.853 239.436C107.877 239.988 107.913 240.552 107.961 241.128C108.033 241.704 108.129 242.256 108.249 242.784C108.393 243.288 108.597 243.72 108.861 244.08H103.209C102.897 243.264 102.705 242.292 102.633 241.164C102.561 240.036 102.453 238.956 102.309 237.924C102.117 236.58 101.709 235.596 101.085 234.972C100.461 234.348 99.4406 234.036 98.0246 234.036H92.3726V244.08H86.7206V218.376ZM118.461 234.144H125.121L121.881 224.712H121.809L118.461 234.144ZM119.001 218.376H124.797L134.409 244.08H128.541L126.597 238.356H116.985L114.969 244.08H109.281L119.001 218.376ZM135.906 218.376H153.978V223.128H141.558V229.068H152.322V233.46H141.558V244.08H135.906V218.376ZM162.213 223.128H154.509V218.376H175.569V223.128H167.865V244.08H162.213V223.128Z" fill="white"/>
<path d="M299.114 159.016C299.018 158.368 298.802 157.78 298.466 157.252C298.13 156.7 297.71 156.22 297.206 155.812C296.702 155.404 296.126 155.092 295.478 154.876C294.854 154.636 294.194 154.516 293.498 154.516C292.226 154.516 291.146 154.768 290.258 155.272C289.37 155.752 288.65 156.412 288.098 157.252C287.546 158.068 287.138 159.004 286.874 160.06C286.634 161.116 286.514 162.208 286.514 163.336C286.514 164.416 286.634 165.472 286.874 166.504C287.138 167.512 287.546 168.424 288.098 169.24C288.65 170.056 289.37 170.716 290.258 171.22C291.146 171.7 292.226 171.94 293.498 171.94C295.226 171.94 296.57 171.412 297.53 170.356C298.514 169.3 299.114 167.908 299.33 166.18H304.802C304.658 167.788 304.286 169.24 303.686 170.536C303.086 171.832 302.294 172.936 301.31 173.848C300.326 174.76 299.174 175.456 297.854 175.936C296.534 176.416 295.082 176.656 293.498 176.656C291.53 176.656 289.754 176.32 288.17 175.648C286.61 174.952 285.29 174.004 284.21 172.804C283.13 171.604 282.302 170.2 281.726 168.592C281.15 166.96 280.862 165.208 280.862 163.336C280.862 161.416 281.15 159.64 281.726 158.008C282.302 156.352 283.13 154.912 284.21 153.688C285.29 152.464 286.61 151.504 288.17 150.808C289.754 150.112 291.53 149.764 293.498 149.764C294.914 149.764 296.246 149.968 297.494 150.376C298.766 150.784 299.894 151.384 300.878 152.176C301.886 152.944 302.714 153.904 303.362 155.056C304.01 156.208 304.418 157.528 304.586 159.016H299.114ZM312.477 163.336C312.477 164.416 312.597 165.472 312.837 166.504C313.101 167.512 313.509 168.424 314.061 169.24C314.613 170.056 315.333 170.716 316.221 171.22C317.109 171.7 318.189 171.94 319.461 171.94C320.733 171.94 321.813 171.7 322.701 171.22C323.589 170.716 324.309 170.056 324.861 169.24C325.413 168.424 325.809 167.512 326.049 166.504C326.313 165.472 326.445 164.416 326.445 163.336C326.445 162.208 326.313 161.116 326.049 160.06C325.809 159.004 325.413 158.068 324.861 157.252C324.309 156.412 323.589 155.752 322.701 155.272C321.813 154.768 320.733 154.516 319.461 154.516C318.189 154.516 317.109 154.768 316.221 155.272C315.333 155.752 314.613 156.412 314.061 157.252C313.509 158.068 313.101 159.004 312.837 160.06C312.597 161.116 312.477 162.208 312.477 163.336ZM306.825 163.336C306.825 161.416 307.113 159.64 307.689 158.008C308.265 156.352 309.093 154.912 310.173 153.688C311.253 152.464 312.573 151.504 314.133 150.808C315.717 150.112 317.493 149.764 319.461 149.764C321.453 149.764 323.229 150.112 324.789 150.808C326.349 151.504 327.669 152.464 328.749 153.688C329.829 154.912 330.657 156.352 331.233 158.008C331.809 159.64 332.097 161.416 332.097 163.336C332.097 165.208 331.809 166.96 331.233 168.592C330.657 170.2 329.829 171.604 328.749 172.804C327.669 174.004 326.349 174.952 324.789 175.648C323.229 176.32 321.453 176.656 319.461 176.656C317.493 176.656 315.717 176.32 314.133 175.648C312.573 174.952 311.253 174.004 310.173 172.804C309.093 171.604 308.265 170.2 307.689 168.592C307.113 166.96 306.825 165.208 306.825 163.336ZM335.241 150.376H343.197L349.209 168.052H349.281L354.969 150.376H362.925V176.08H357.633V157.864H357.561L351.261 176.08H346.905L340.605 158.044H340.533V176.08H335.241V150.376ZM367.181 150.376H375.137L381.149 168.052H381.221L386.909 150.376H394.865V176.08H389.573V157.864H389.501L383.201 176.08H378.845L372.545 158.044H372.473V176.08H367.181V150.376ZM399.121 150.376H418.345V155.128H404.773V160.636H417.229V165.028H404.773V171.328H418.633V176.08H399.121V150.376ZM427.397 162.004H433.589C434.885 162.004 435.857 161.716 436.505 161.14C437.153 160.564 437.477 159.628 437.477 158.332C437.477 157.084 437.153 156.184 436.505 155.632C435.857 155.056 434.885 154.768 433.589 154.768H427.397V162.004ZM421.745 150.376H435.605C436.757 150.376 437.789 150.568 438.701 150.952C439.637 151.312 440.429 151.816 441.077 152.464C441.749 153.112 442.253 153.868 442.589 154.732C442.949 155.572 443.129 156.484 443.129 157.468C443.129 158.98 442.805 160.288 442.157 161.392C441.533 162.496 440.501 163.336 439.061 163.912V163.984C439.757 164.176 440.333 164.476 440.789 164.884C441.245 165.268 441.617 165.736 441.905 166.288C442.193 166.816 442.397 167.404 442.517 168.052C442.661 168.7 442.757 169.348 442.805 169.996C442.829 170.404 442.853 170.884 442.877 171.436C442.901 171.988 442.937 172.552 442.985 173.128C443.057 173.704 443.153 174.256 443.273 174.784C443.417 175.288 443.621 175.72 443.885 176.08H438.233C437.921 175.264 437.729 174.292 437.657 173.164C437.585 172.036 437.477 170.956 437.333 169.924C437.141 168.58 436.733 167.596 436.109 166.972C435.485 166.348 434.465 166.036 433.049 166.036H427.397V176.08H421.745V150.376ZM464.141 159.016C464.045 158.368 463.829 157.78 463.493 157.252C463.157 156.7 462.737 156.22 462.233 155.812C461.729 155.404 461.153 155.092 460.505 154.876C459.881 154.636 459.221 154.516 458.525 154.516C457.253 154.516 456.173 154.768 455.285 155.272C454.397 155.752 453.677 156.412 453.125 157.252C452.573 158.068 452.165 159.004 451.901 160.06C451.661 161.116 451.541 162.208 451.541 163.336C451.541 164.416 451.661 165.472 451.901 166.504C452.165 167.512 452.573 168.424 453.125 169.24C453.677 170.056 454.397 170.716 455.285 171.22C456.173 171.7 457.253 171.94 458.525 171.94C460.253 171.94 461.597 171.412 462.557 170.356C463.541 169.3 464.141 167.908 464.357 166.18H469.829C469.685 167.788 469.313 169.24 468.713 170.536C468.113 171.832 467.321 172.936 466.337 173.848C465.353 174.76 464.201 175.456 462.881 175.936C461.561 176.416 460.109 176.656 458.525 176.656C456.557 176.656 454.781 176.32 453.197 175.648C451.637 174.952 450.317 174.004 449.237 172.804C448.157 171.604 447.329 170.2 446.753 168.592C446.177 166.96 445.889 165.208 445.889 163.336C445.889 161.416 446.177 159.64 446.753 158.008C447.329 156.352 448.157 154.912 449.237 153.688C450.317 152.464 451.637 151.504 453.197 150.808C454.781 150.112 456.557 149.764 458.525 149.764C459.941 149.764 461.273 149.968 462.521 150.376C463.793 150.784 464.921 151.384 465.905 152.176C466.913 152.944 467.741 153.904 468.389 155.056C469.037 156.208 469.445 157.528 469.613 159.016H464.141ZM472.969 150.376H492.193V155.128H478.621V160.636H491.077V165.028H478.621V171.328H492.481V176.08H472.969V150.376Z" fill="white"/>
</svg>
