<svg width="107" height="107" viewBox="0 0 107 107" fill="none" xmlns="http://www.w3.org/2000/svg"><path d="M53.5 0C42.9187 0 32.575 3.13772 23.777 9.01637C14.979 14.895 8.12176 23.2506 4.07247 33.0264C0.0231807 42.8023 -1.0363 53.5593 1.02801 63.9373C3.09232 74.3153 8.1877 83.8481 15.6698 91.3302C23.1519 98.8123 32.6847 103.908 43.0627 105.972C53.4407 108.036 64.1977 106.977 73.9736 102.928C83.7494 98.8782 92.105 92.021 97.9836 83.223C103.862 74.425 107 64.0813 107 53.5C107 39.3109 101.363 25.703 91.3302 15.6698C81.297 5.63659 67.6891 0 53.5 0ZM53.5 98.7692C44.5466 98.7692 35.7943 96.1142 28.3498 91.14C20.9053 86.1657 15.103 79.0956 11.6767 70.8238C8.25038 62.5519 7.3539 53.4498 9.10063 44.6684C10.8473 35.887 15.1588 27.8208 21.4898 21.4898C27.8209 15.1588 35.8871 10.8473 44.6684 9.1006C53.4498 7.35388 62.5519 8.25036 70.8238 11.6767C79.0957 15.103 86.1657 20.9053 91.14 28.3498C96.1142 35.7942 98.7692 44.5466 98.7692 53.5C98.7692 65.5061 93.9998 77.0205 85.5102 85.5102C77.0206 93.9998 65.5062 98.7692 53.5 98.7692Z" fill="currentColor"/><path d="M32.0611 52.4298C32.4436 52.8156 32.8988 53.1217 33.4003 53.3307C33.9018 53.5396 34.4397 53.6472 34.983 53.6472C35.5263 53.6472 36.0642 53.5396 36.5657 53.3307C37.0672 53.1217 37.5223 52.8156 37.9049 52.4298L47.5761 42.7587C49.3933 40.9154 50.5015 38.4898 50.7052 35.9093C50.909 33.3289 50.1952 30.7594 48.6898 28.6538C47.1843 26.5481 44.9839 25.0415 42.4763 24.3996C39.9687 23.7577 37.315 24.0216 34.983 25.1448C32.6474 23.9523 29.9612 23.6378 27.4133 24.2586C24.8654 24.8795 22.625 26.3944 21.0998 28.5277C19.5746 30.661 18.8659 33.271 19.1027 35.8827C19.3394 38.4945 20.5059 40.9344 22.3899 42.7587L32.0611 52.4298ZM28.1926 32.9229C28.4424 32.6615 28.7425 32.4534 29.075 32.3112C29.4074 32.169 29.7653 32.0957 30.1268 32.0957C30.4884 32.0957 30.8462 32.169 31.1787 32.3112C31.5111 32.4534 31.8113 32.6615 32.0611 32.9229C32.4436 33.3086 32.8988 33.6148 33.4003 33.8237C33.9018 34.0327 34.4397 34.1402 34.983 34.1402C35.5263 34.1402 36.0642 34.0327 36.5657 33.8237C37.0672 33.6148 37.5223 33.3086 37.9049 32.9229C38.1576 32.6666 38.4587 32.4631 38.7908 32.3241C39.1228 32.1852 39.4792 32.1137 39.8391 32.1137C40.1991 32.1137 40.5554 32.1852 40.8875 32.3241C41.2195 32.4631 41.5207 32.6666 41.7734 32.9229C42.0348 33.1727 42.2429 33.4729 42.3851 33.8053C42.5273 34.1378 42.6006 34.4956 42.6006 34.8571C42.6006 35.2187 42.5273 35.5765 42.3851 35.909C42.2429 36.2414 42.0348 36.5416 41.7734 36.7914L34.983 43.7052L28.1926 37.0383C27.9312 36.7885 27.7231 36.4884 27.5809 36.1559C27.4387 35.8235 27.3654 35.4656 27.3654 35.1041C27.3654 34.7425 27.4387 34.3847 27.5809 34.0522C27.7231 33.7198 27.9312 33.4196 28.1926 33.1698V32.9229Z" fill="currentColor"/><path d="M69.0996 52.4298C69.4821 52.8156 69.9373 53.1217 70.4388 53.3307C70.9403 53.5396 71.4782 53.6472 72.0215 53.6472C72.5648 53.6472 73.1027 53.5396 73.6042 53.3307C74.1057 53.1217 74.5608 52.8156 74.9434 52.4298L84.6145 42.7587C86.4318 40.9154 87.54 38.4898 87.7437 35.9093C87.9475 33.3289 87.2337 30.7594 85.7283 28.6538C84.2228 26.5481 82.0224 25.0415 79.5148 24.3996C77.0072 23.7577 74.3535 24.0216 72.0215 25.1448C69.6859 23.9523 66.9997 23.6378 64.4518 24.2586C61.9039 24.8795 59.6635 26.3944 58.1383 28.5277C56.6131 30.661 55.9044 33.271 56.1412 35.8827C56.3779 38.4945 57.5444 40.9344 59.4284 42.7587L69.0996 52.4298ZM65.2311 32.9229C65.4809 32.6615 65.781 32.4534 66.1135 32.3112C66.4459 32.169 66.8037 32.0957 67.1653 32.0957C67.5269 32.0957 67.8847 32.169 68.2172 32.3112C68.5496 32.4534 68.8498 32.6615 69.0996 32.9229C69.4821 33.3086 69.9373 33.6148 70.4388 33.8237C70.9403 34.0327 71.4782 34.1402 72.0215 34.1402C72.5648 34.1402 73.1027 34.0327 73.6042 33.8237C74.1057 33.6148 74.5608 33.3086 74.9434 32.9229C75.1961 32.6666 75.4972 32.4631 75.8293 32.3241C76.1613 32.1852 76.5177 32.1137 76.8776 32.1137C77.2376 32.1137 77.5939 32.1852 77.926 32.3241C78.258 32.4631 78.5592 32.6666 78.8119 32.9229C79.0733 33.1727 79.2814 33.4729 79.4236 33.8053C79.5657 34.1378 79.6391 34.4956 79.6391 34.8571C79.6391 35.2187 79.5657 35.5765 79.4236 35.909C79.2814 36.2414 79.0733 36.5416 78.8119 36.7914L72.0215 43.7052L65.2311 37.0383C64.9696 36.7885 64.7615 36.4884 64.6194 36.1559C64.4772 35.8235 64.4039 35.4656 64.4039 35.1041C64.4039 34.7425 64.4772 34.3847 64.6194 34.0522C64.7615 33.7198 64.9696 33.4196 65.2311 33.1698V32.9229Z" fill="currentColor"/><path d="M82.3075 57.6155C81.216 57.6155 80.1693 58.0491 79.3975 58.8209C78.6257 59.5927 78.1921 60.6394 78.1921 61.7309C78.1921 73.0894 67.1217 82.3078 53.4998 82.3078C39.8779 82.3078 28.8075 73.0894 28.8075 61.7309C28.8075 60.6394 28.3739 59.5927 27.6022 58.8209C26.8304 58.0491 25.7836 57.6155 24.6921 57.6155C23.6007 57.6155 22.5539 58.0491 21.7821 58.8209C21.0103 59.5927 20.5768 60.6394 20.5768 61.7309C20.5768 77.6163 35.351 90.5386 53.4998 90.5386C71.6487 90.5386 86.4229 77.6163 86.4229 61.7309C86.4229 60.6394 85.9893 59.5927 85.2175 58.8209C84.4457 58.0491 83.399 57.6155 82.3075 57.6155Z" fill="currentColor"/></svg>